<svg xmlns="http://www.w3.org/2000/svg" xmlns:xlink="http://www.w3.org/1999/xlink" xmlns:lucid="lucid" width="1372" height="1112"><g transform="translate(-5 -5)" lucid:page-tab-id="0_0"><path d="M0 0h1870.87v1322.83H0z" fill="#fff"/><path d="M20 340V26c0-3.3 2.7-6 6-6h37.5v320zM20 340h43.5v140H20zM20 480h43.5v380H20zM63.5 1100H26c-3.3 0-6-2.7-6-6V860h43.5z" stroke="#5e5e5e" stroke-width="3" fill="#fff"/><path d="M63.5 20H1354c3.3 0 6 2.7 6 6v314H63.5zM63.5 340H1360v140H63.5zM63.5 480H1360v380H63.5zM1360 860v234c0 3.3-2.7 6-6 6H63.5V860z" stroke="#5e5e5e" stroke-width="3" fill="none"/><use xlink:href="#a" transform="matrix(-1.8369701987210297e-16,-1,1,-1.8369701987210297e-16,20,340) translate(125.27777777777777 29.8)"/><use xlink:href="#b" transform="matrix(-1.8369701987210297e-16,-1,1,-1.8369701987210297e-16,20,479.99999999999994) translate(14.233333333333327 29.8)"/><use xlink:href="#c" transform="matrix(-1.8369701987210297e-16,-1,1,-1.8369701987210297e-16,20,860) translate(128.67777777777778 29.8)"/><use xlink:href="#d" transform="matrix(-1.8369701987210297e-16,-1,1,-1.8369701987210297e-16,20,1100) translate(26.622222222222206 29.8)"/><path d="M1079.67 369.8c0-3.3 2.68-6 6-6h228c3.3 0 6 2.7 6 6v80.4c0 3.3-2.7 6-6 6h-228c-3.32 0-6-2.7-6-6z" stroke="#5e5e5e" stroke-width="3" fill="#fff"/><use xlink:href="#e" transform="matrix(1,0,0,1,1091.6666666666665,375.81333333333333) translate(0.49777777777779875 32.729305555555555)"/><use xlink:href="#f" transform="matrix(1,0,0,1,1091.6666666666665,375.81333333333333) translate(16.953333333333376 51.111527777777766)"/><use xlink:href="#g" transform="matrix(1,0,0,1,1091.6666666666665,375.81333333333333) translate(69.46000000000002 51.111527777777766)"/><use xlink:href="#h" transform="matrix(1,0,0,1,1091.6666666666665,375.81333333333333) translate(162.5933333333333 51.111527777777766)"/><path d="M455.2 572.93c2.65-2 6.95-2 9.6 0l70.4 52.8c2.65 2 2.65 5.2 0 7.2l-70.4 52.8c-2.65 2-6.95 2-9.6 0l-70.4-52.8c-2.65-2-2.65-5.2 0-7.2z" stroke="#5e5e5e" stroke-width="3" fill="#fff"/><use xlink:href="#i" transform="matrix(1,0,0,1,385,574.3294319637448) translate(44.56055555555556 45.135555555555555)"/><use xlink:href="#j" transform="matrix(1,0,0,1,385,574.3294319637448) translate(34.01833333333333 67.92666666666666)"/><path d="M1220.2 562.93c2.65-2 6.95-2 9.6 0l70.4 52.8c2.65 2 2.65 5.2 0 7.2l-70.4 52.8c-2.65 2-6.95 2-9.6 0l-70.4-52.8c-2.65-2-2.65-5.2 0-7.2z" stroke="#5e5e5e" stroke-width="3" fill="#fff"/><use xlink:href="#k" transform="matrix(1,0,0,1,1150,564.3294319637448) translate(32.10722222222223 45.135555555555555)"/><use xlink:href="#l" transform="matrix(1,0,0,1,1150,564.3294319637448) translate(85.90277777777777 45.135555555555555)"/><use xlink:href="#j" transform="matrix(1,0,0,1,1150,564.3294319637448) translate(34.01833333333333 67.92666666666666)"/><path d="M1130 746c0-3.3 2.7-6 6-6h178c3.3 0 6 2.7 6 6v68c0 3.3-2.7 6-6 6h-178c-3.3 0-6-2.7-6-6z" stroke="#5e5e5e" stroke-width="3" fill="#fff"/><use xlink:href="#m" transform="matrix(1,0,0,1,1142,752) translate(55.488888888888894 21.135555555555552)"/><use xlink:href="#n" transform="matrix(1,0,0,1,1142,752) translate(20.760000000000026 43.92666666666666)"/><path d="M621 946.42c0-3.32 2.7-6 6-6h204c3.3 0 6 2.68 6 6v80.37c0 3.3-2.7 6-6 6H627c-3.3 0-6-2.7-6-6z" stroke="#5e5e5e" stroke-width="3" fill="#fff"/><use xlink:href="#o" transform="matrix(1,0,0,1,633,952.4173228346453) translate(25.504444444444445 32.729305555555555)"/><use xlink:href="#p" transform="matrix(1,0,0,1,633,952.4173228346453) translate(1.653333333333336 51.111527777777766)"/><use xlink:href="#q" transform="matrix(1,0,0,1,633,952.4173228346453) translate(30.959999999999994 51.111527777777766)"/><path d="M585.56 545.33c0-3.3 2.68-6 6-6H1094c3.3 0 6 2.7 6 6v268c0 3.3-2.7 6-6 6H591.56c-3.32 0-6-2.7-6-6z" stroke="#5e5e5e" stroke-width="3" fill="#fff"/><use xlink:href="#r" transform="matrix(1,0,0,1,590.5554998416507,544.3294319637448) translate(0 17.635555555555552)"/><path d="M625.56 725.33c0-3.3 2.68-6 6-6h108c3.3 0 6 2.7 6 6v68c0 3.3-2.7 6-6 6h-108c-3.32 0-6-2.7-6-6z" stroke="#5e5e5e" stroke-width="3" fill="#fff"/><use xlink:href="#s" transform="matrix(1,0,0,1,637.5554998416505,731.3294319637448) translate(6.878888888888895 22.431111111111107)"/><use xlink:href="#t" transform="matrix(1,0,0,1,637.5554998416505,731.3294319637448) translate(21.60222222222223 42.37333333333332)"/><path d="M779.3 565.33c0-3.3 2.7-6 6-6H1074c3.3 0 6 2.7 6 6v240.15c0 3.32-2.7 6-6 6H785.3c-3.3 0-6-2.68-6-6z" stroke="#5e5e5e" stroke-width="3" fill="#fff"/><use xlink:href="#u" transform="matrix(1,0,0,1,784.3054998416505,564.3294319637448) translate(0 15.431111111111104)"/><use xlink:href="#v" transform="matrix(1,0,0,1,784.3054998416505,564.3294319637448) translate(0 35.37333333333332)"/><use xlink:href="#v" transform="matrix(1,0,0,1,784.3054998416505,564.3294319637448) translate(0 55.315555555555534)"/><use xlink:href="#v" transform="matrix(1,0,0,1,784.3054998416505,564.3294319637448) translate(0 75.25777777777775)"/><use xlink:href="#v" transform="matrix(1,0,0,1,784.3054998416505,564.3294319637448) translate(0 95.19999999999996)"/><use xlink:href="#v" transform="matrix(1,0,0,1,784.3054998416505,564.3294319637448) translate(0 115.14222222222217)"/><use xlink:href="#v" transform="matrix(1,0,0,1,784.3054998416505,564.3294319637448) translate(0 135.0844444444444)"/><use xlink:href="#v" transform="matrix(1,0,0,1,784.3054998416505,564.3294319637448) translate(0 155.0266666666666)"/><use xlink:href="#v" transform="matrix(1,0,0,1,784.3054998416505,564.3294319637448) translate(0 174.96888888888884)"/><use xlink:href="#v" transform="matrix(1,0,0,1,784.3054998416505,564.3294319637448) translate(0 194.91111111111107)"/><use xlink:href="#v" transform="matrix(1,0,0,1,784.3054998416505,564.3294319637448) translate(0 214.8533333333333)"/><use xlink:href="#w" transform="matrix(1,0,0,1,784.3054998416505,564.3294319637448) translate(0 234.79555555555552)"/><use xlink:href="#q" transform="matrix(1,0,0,1,784.3054998416505,564.3294319637448) translate(30.124444444444435 234.79555555555552)"/><path d="M825.56 598.27c0-3.3 2.68-6 6-6h108c3.3 0 6 2.7 6 6v68c0 3.3-2.7 6-6 6h-108c-3.32 0-6-2.7-6-6z" stroke="#5e5e5e" stroke-width="3" fill="#fff"/><use xlink:href="#x" transform="matrix(1,0,0,1,837.5554998416507,604.2697728728358) translate(-3.1544444444444366 23.488888888888894)"/><use xlink:href="#y" transform="matrix(1,0,0,1,837.5554998416507,604.2697728728358) translate(5.012222222222235 43.43111111111111)"/><path d="M920 706c0-3.3 2.7-6 6-6h108c3.3 0 6 2.7 6 6v68c0 3.3-2.7 6-6 6H926c-3.3 0-6-2.7-6-6z" stroke="#5e5e5e" stroke-width="3" fill="#fff"/><use xlink:href="#z" transform="matrix(1,0,0,1,932,712) translate(7.151111111111113 22.431111111111107)"/><use xlink:href="#y" transform="matrix(1,0,0,1,932,712) translate(5.012222222222235 42.37333333333332)"/><path d="M839.5 986.6h137.8c.1 0 .2-.1.2-.2 0-.12.1-.2.2-.2H1098" stroke="#5e5e5e" stroke-width="2" fill="none"/><path d="M839.53 987.6h-1.03v-2h1.03z" fill="#5e5e5e"/><path d="M1113.26 986.2L1099 990.8v-9.27z" stroke="#5e5e5e" stroke-width="2" fill="#5e5e5e"/><path d="M1118 962.2c0-3.33 2.7-6 6-6h189.67c3.3 0 6 2.67 6 6v48c0 3.3-2.7 6-6 6H1124c-3.3 0-6-2.7-6-6z" stroke="#5e5e5e" stroke-width="3" fill="#fff"/><path d="M1138.17 956.2v60m161.33-60v60" stroke="#5e5e5e" stroke-width="3" fill="none"/><use xlink:href="#A" transform="matrix(1,0,0,1,1148.2083333333333,961.1866666666665) translate(11.204444444444455 31.24)"/><path d="M685.56 672.66v26.67" stroke="#5e5e5e" stroke-width="2" fill="none"/><path d="M686.56 671.68v1h-2v-1.03z" fill="#5e5e5e"/><path d="M685.56 714.6l-4.64-14.27h9.27z" stroke="#5e5e5e" stroke-width="2" fill="#5e5e5e"/><use xlink:href="#B" transform="matrix(1,0,0,1,693.5554998416505,683.3514192674901) translate(0 17.635555555555555)"/><path d="M748.06 759.33h31.5c3.3 0 6-2.7 6-6V638.27c0-3.3 2.68-6 6-6h14" stroke="#5e5e5e" stroke-width="2" fill="none"/><path d="M748.08 760.33h-1.02v-2h1.02z" fill="#5e5e5e"/><path d="M820.82 632.27l-14.27 4.64v-9.27z" stroke="#5e5e5e" stroke-width="2" fill="#5e5e5e"/><path d="M680.68 589.88c2.7-1.93 7.06-1.93 9.75 0l50.25 35.96c2.7 1.93 2.7 5.05 0 6.98l-50.25 35.96c-2.7 1.93-7.06 1.93-9.75 0l-50.25-35.96c-2.7-1.93-2.7-5.05 0-6.98z" stroke="#5e5e5e" stroke-width="3" fill="#fff"/><use xlink:href="#C" transform="matrix(1,0,0,1,630.5554998416505,591.3890910546538) translate(15.450000000000017 33.488888888888894)"/><use xlink:href="#D" transform="matrix(1,0,0,1,630.5554998416505,591.3890910546538) translate(18.87222222222225 53.43111111111111)"/><path d="M824.4 511H465l-2.63.7-1.78 1.8-.72 2.63V569h-2v-53.13l.92-3.42 2.53-2.53 3.4-.92h359.68zm398.15-1.08l2.53 2.53.92 3.42v25.63h-2v-25.37l-.7-2.64-1.8-1.8-2.63-.7h-369.4v-2h369.66z" fill="#5e5e5e"/><path d="M459.88 570l-.9-.02-1.1.24v-1.25h2zM1225 556.76l-4.64-14.26h9.28z" fill="#5e5e5e"/><path d="M1225 560l-6-18.5h12zm-3.26-16.5l3.26 10.03 3.26-10.03z" fill="#5e5e5e"/><use xlink:href="#E" transform="matrix(1,0,0,1,824.4140694418325,498.6044444444445) translate(0 17.635555555555555)"/><path d="M539.6 629.33h68.92" stroke="#5e5e5e" stroke-width="2" fill="none"/><path d="M539.64 630.33h-1.1l.18-.4-.28-1.6h1.2z" fill="#5e5e5e"/><path d="M623.8 629.33l-14.28 4.63v-9.27z" stroke="#5e5e5e" stroke-width="2" fill="#5e5e5e"/><use xlink:href="#B" transform="matrix(1,0,0,1,546.002988793549,633.3294319637448) translate(0 17.635555555555555)"/><path d="M745.1 629.33h60.45" stroke="#5e5e5e" stroke-width="2" fill="none"/><path d="M745.1 630.33h-1l.1-.2-.26-1.8h1.17z" fill="#5e5e5e"/><path d="M820.82 629.33l-14.27 4.63v-9.27z" stroke="#5e5e5e" stroke-width="2" fill="#5e5e5e"/><use xlink:href="#E" transform="matrix(1,0,0,1,750.8585328941448,633.3294320165722) translate(0 17.635555555555555)"/><path d="M1225 679.66V720" stroke="#5e5e5e" stroke-width="2" fill="none"/><path d="M1226 678.68v1h-2v-1.05z" fill="#5e5e5e"/><path d="M1225 735.26l-4.64-14.26h9.28z" stroke="#5e5e5e" stroke-width="2" fill="#5e5e5e"/><use xlink:href="#B" transform="matrix(1,0,0,1,1189.302222222222,690.6236700316311) translate(0 17.635555555555555)"/><path d="M1042.5 740h41.5c3.3 0 6-2.7 6-6V625.33c0-3.3 2.7-6 6-6h31.9" stroke="#5e5e5e" stroke-width="2" fill="none"/><path d="M1042.53 741h-1.03v-2h1.03z" fill="#5e5e5e"/><path d="M1143.15 619.33l-14.26 4.63v-9.27z" stroke="#5e5e5e" stroke-width="2" fill="#5e5e5e"/><path d="M114.45 385.8c.86-3.2 4.24-5.8 7.55-5.8h212c3.3 0 5.3 2.6 4.45 5.8l-12.9 48.4c-.86 3.2-4.24 5.8-7.55 5.8H106c-3.3 0-5.3-2.6-4.45-5.8z" stroke="#5e5e5e" stroke-width="3" fill="#fff"/><use xlink:href="#F" transform="matrix(1,0,0,1,105,385) translate(43.0227777777778 30.135555555555552)"/><path d="M114.45 605.13c.86-3.2 4.24-5.8 7.55-5.8h212c3.3 0 5.3 2.6 4.45 5.8l-12.9 48.4c-.86 3.2-4.24 5.8-7.55 5.8H106c-3.3 0-5.3-2.6-4.45-5.8z" stroke="#5e5e5e" stroke-width="3" fill="#fff"/><use xlink:href="#G" transform="matrix(1,0,0,1,105,604.3294319637448) translate(38.66722222222224 30.135555555555552)"/><path d="M114.45 967.6c.86-3.2 4.24-5.8 7.55-5.8h212c3.3 0 5.3 2.6 4.45 5.8l-12.9 48.4c-.86 3.2-4.24 5.8-7.55 5.8H106c-3.3 0-5.3-2.6-4.45-5.8z" stroke="#5e5e5e" stroke-width="3" fill="#fff"/><use xlink:href="#H" transform="matrix(1,0,0,1,105,966.7906561679788) translate(13.262777777777794 30.135555555555552)"/><path d="M334.55 410h725.1" stroke="#5e5e5e" stroke-width="2" fill="none"/><path d="M334.58 411h-1.3l.54-2h.76z" fill="#5e5e5e"/><path d="M1074.93 410l-14.27 4.64v-9.28z" stroke="#5e5e5e" stroke-width="2" fill="#5e5e5e"/><path d="M334.55 629.33h28.34" stroke="#5e5e5e" stroke-width="2" fill="none"/><path d="M334.58 630.33h-1.3l.54-2h.76z" fill="#5e5e5e"/><path d="M378.15 629.33l-14.26 4.63v-9.27z" stroke="#5e5e5e" stroke-width="2" fill="#5e5e5e"/><path d="M334.55 991.8H601" stroke="#5e5e5e" stroke-width="2" fill="none"/><path d="M334.58 992.8h-1.3l.54-2h.76z" fill="#5e5e5e"/><path d="M616.26 991.8L602 996.42v-9.27z" stroke="#5e5e5e" stroke-width="2" fill="#5e5e5e"/><path d="M885.56 674.77v59.4c0 3.32 2.68 6 6 6H900" stroke="#5e5e5e" stroke-width="2" fill="none"/><path d="M886.56 674.8h-2v-1.03h2z" fill="#5e5e5e"/><path d="M915.26 740.18L901 744.8v-9.26z" stroke="#5e5e5e" stroke-width="2" fill="#5e5e5e"/><path d="M982 74.46c0-3.3 2.7-6 6-6h327c3.3 0 6 2.7 6 6v86.08c0 3.3-2.7 6-6 6H988c-3.3 0-6-2.7-6-6z" stroke="#5e5e5e" stroke-width="3" fill="#fff"/><use xlink:href="#I" transform="matrix(1,0,0,1,994,80.46444444444447) translate(60.806666666666686 27.010555555555552)"/><use xlink:href="#J" transform="matrix(1,0,0,1,994,80.46444444444447) translate(55.726666666666716 45.392777777777766)"/><use xlink:href="#K" transform="matrix(1,0,0,1,994,80.46444444444447) translate(226.40666666666664 45.392777777777766)"/><use xlink:href="#L" transform="matrix(1,0,0,1,994,80.46444444444447) translate(52.15333333333335 62.48611111111109)"/><path d="M175.2 61.1c2.65-2 6.95-2 9.6 0l70.4 52.8c2.65 2 2.65 5.2 0 7.2l-70.4 52.8c-2.65 2-6.95 2-9.6 0l-70.4-52.8c-2.65-2-2.65-5.2 0-7.2z" stroke="#5e5e5e" stroke-width="3" fill="#fff"/><g><use xlink:href="#M" transform="matrix(1,0,0,1,105,62.5) translate(35.45500000000001 49.80611111111111)"/><use xlink:href="#N" transform="matrix(1,0,0,1,105,62.5) translate(38.877222222222244 69.74833333333332)"/></g><path d="M803.2 61.1c2.65-2 6.95-2 9.6 0l70.4 52.8c2.65 2 2.65 5.2 0 7.2l-70.4 52.8c-2.65 2-6.95 2-9.6 0l-70.4-52.8c-2.65-2-2.65-5.2 0-7.2z" stroke="#5e5e5e" stroke-width="3" fill="#fff"/><g><use xlink:href="#O" transform="matrix(1,0,0,1,733,62.5) translate(52.226666666666674 40.51777777777778)"/><use xlink:href="#P" transform="matrix(1,0,0,1,733,62.5) translate(6.936666666666696 60.459999999999994)"/><use xlink:href="#Q" transform="matrix(1,0,0,1,733,62.5) translate(42.03777777777779 80.4022222222222)"/></g><path d="M920.3 118.5h-32.7v-2h32.7zm41.7 0h-15.2v-2H962z" fill="#5e5e5e"/><path d="M887.64 118.5h-1.1l.18-.4-.28-1.6h1.2zM977.26 117.5L963 122.14v-9.28z" fill="#5e5e5e"/><path d="M980.5 117.5l-18.5 6v-12zm-16.5 3.26l10.03-3.26-10.03-3.26z" fill="#5e5e5e"/><g><use xlink:href="#R" transform="matrix(1,0,0,1,920.3111180753493,106.10444444444444) translate(0.005000000000000782 17.635555555555555)"/></g><path d="M980 206c0-3.3 2.7-6 6-6h327c3.3 0 6 2.7 6 6v86.07c0 3.3-2.7 6-6 6H986c-3.3 0-6-2.7-6-6z" stroke="#5e5e5e" stroke-width="3" fill="#fff"/><g><use xlink:href="#S" transform="matrix(1,0,0,1,992,212) translate(3.331111111111113 34.041805555555555)"/><use xlink:href="#T" transform="matrix(1,0,0,1,992,212) translate(45.54000000000005 52.424027777777766)"/><use xlink:href="#U" transform="matrix(1,0,0,1,992,212) translate(74.8466666666667 52.424027777777766)"/></g><path d="M809 242.9l.7 2.65 1.8 1.77 2.63.72h30.7v2h-30.96l-3.42-.93-2.53-2.52-.92-3.4v-65.35h2zm151 5.14v2h-90.52v-2z" fill="#5e5e5e"/><path d="M809 176.85v1h-2v-1.04zM975.26 249.04L961 253.67v-9.27z" fill="#5e5e5e"/><path d="M978.5 249.04l-18.5 6v-12.02zM962 252.3l10.03-3.26-10.03-3.26z" fill="#5e5e5e"/><g><use xlink:href="#V" transform="matrix(1,0,0,1,844.8180493152058,237.64) translate(0.005000000000000782 17.635555555555555)"/></g><path d="M488.7 46.85c2.92-1.54 7.68-1.54 10.6 0l129.4 67.86c2.92 1.55 2.92 4.05 0 5.6l-129.4 67.85c-2.92 1.54-7.68 1.54-10.6 0L359.3 120.3c-2.92-1.55-2.92-4.05 0-5.6z" stroke="#5e5e5e" stroke-width="3" fill="#fff"/><g><use xlink:href="#W" transform="matrix(1,0,0,1,359,49.06041978684158) translate(65.8138888888889 51.885555555555555)"/><use xlink:href="#X" transform="matrix(1,0,0,1,359,49.06041978684158) translate(30.018333333333413 70.26777777777777)"/><use xlink:href="#Y" transform="matrix(1,0,0,1,359,49.06041978684158) translate(64.91166666666669 87.36111111111109)"/></g><path d="M294 118.5h-34.4v-2H294zm43.37 0H320.5v-2h16.87z" fill="#5e5e5e"/><path d="M259.64 118.5h-1.1l.18-.4-.28-1.6h1.2zM352.64 117.5l-14.27 4.64v-9.28z" fill="#5e5e5e"/><path d="M355.87 117.5l-18.5 6v-12zm-16.5 3.26l10.03-3.26-10.03-3.26z" fill="#5e5e5e"/><g><use xlink:href="#R" transform="matrix(1,0,0,1,293.9981286852378,106.10444444444444) translate(0.005000000000000782 17.635555555555555)"/></g><path d="M667.5 118.5h-34.37v-2h34.38zm43.4 0H694v-2h16.9z" fill="#5e5e5e"/><path d="M633.15 118.5H632l.24-2h.9zM726.15 117.5l-14.26 4.64v-9.28z" fill="#5e5e5e"/><path d="M729.4 117.5l-18.5 6v-12zm-16.5 3.26l10.02-3.26-10.03-3.26z" fill="#5e5e5e"/><g><use xlink:href="#R" transform="matrix(1,0,0,1,667.5129824019265,106.10444444444444) translate(0.005000000000000782 17.635555555555555)"/></g><defs><path fill="#333" d="M349-523c153 3 224 114 224 268 0 156-81 269-235 269-65 0-120-21-167-63v293H86v-639c0-37-2-75-7-114h81c5 21 3 52 9 78 33-55 92-94 180-92zM320-54c111 1 165-88 165-201 0-111-49-200-153-200-99 0-161 67-161 165v169c42 40 76 65 149 67" id="Z"/><path fill="#333" d="M353-447c-118-18-182 64-182 174V0H86c-3-170 7-349-7-509h81c5 22 3 54 9 81 32-70 98-104 189-92" id="aa"/><path fill="#333" d="M288-523c162-3 241 129 226 299H136c6 100 61 171 167 170 70-1 110-20 156-50l38 55c-54 38-112 62-199 63C141 16 48-99 50-257c3-159 80-263 238-266zm145 233c-2-96-49-168-146-168-96 0-149 75-152 168h298" id="ab"/><path fill="#333" d="M270 14C144 14 79-74 79-197v-312h86v300c0 89 37 155 125 155 95 0 154-86 154-183v-272h85c3 170-7 349 7 509h-81c-5-20-3-53-9-81-37 63-95 95-176 95" id="ac"/><path fill="#333" d="M323-452c-91 0-152 70-152 160V0H86c-3-170 7-349-7-509h81c5 17 3 46 9 72 33-51 94-86 177-86 122 0 189 80 189 194V0h-85v-312c-1-82-40-140-127-140" id="ad"/><g id="a"><use transform="matrix(0.022222222222222223,0,0,0.022222222222222223,0,0)" xlink:href="#Z"/><use transform="matrix(0.022222222222222223,0,0,0.022222222222222223,13.822222222222223,0)" xlink:href="#aa"/><use transform="matrix(0.022222222222222223,0,0,0.022222222222222223,21.488888888888887,0)" xlink:href="#ab"/><use transform="matrix(0.022222222222222223,0,0,0.022222222222222223,34.044444444444444,0)" xlink:href="#aa"/><use transform="matrix(0.022222222222222223,0,0,0.022222222222222223,42.13333333333333,0)" xlink:href="#ac"/><use transform="matrix(0.022222222222222223,0,0,0.022222222222222223,55.800000000000004,0)" xlink:href="#ad"/></g><path fill="#333" d="M328 1C218 40 105-8 105-130v-314H15v-55l89-10v-125l86-30v155h135v65H190v307c-6 76 60 95 125 75" id="ae"/><path fill="#333" d="M172 0H87v-509h85V0zm-42-631c-37 0-55-19-56-52 0-36 19-54 56-54s55 18 55 54c-1 33-19 52-55 52" id="af"/><path fill="#333" d="M293 0h-95L4-509h91L246-85h3l146-424h88" id="ag"/><g id="b"><use transform="matrix(0.022222222222222223,0,0,0.022222222222222223,0,0)" xlink:href="#Z"/><use transform="matrix(0.022222222222222223,0,0,0.022222222222222223,13.822222222222223,0)" xlink:href="#aa"/><use transform="matrix(0.022222222222222223,0,0,0.022222222222222223,21.488888888888887,0)" xlink:href="#ab"/><use transform="matrix(0.022222222222222223,0,0,0.022222222222222223,34.044444444444444,0)" xlink:href="#aa"/><use transform="matrix(0.022222222222222223,0,0,0.022222222222222223,41.71111111111111,0)" xlink:href="#ab"/><use transform="matrix(0.022222222222222223,0,0,0.022222222222222223,54.13333333333333,0)" xlink:href="#ae"/><use transform="matrix(0.022222222222222223,0,0,0.022222222222222223,62.066666666666656,0)" xlink:href="#aa"/><use transform="matrix(0.022222222222222223,0,0,0.022222222222222223,70.15555555555555,0)" xlink:href="#af"/><use transform="matrix(0.022222222222222223,0,0,0.022222222222222223,75.88888888888889,0)" xlink:href="#ab"/><use transform="matrix(0.022222222222222223,0,0,0.022222222222222223,88.28888888888889,0)" xlink:href="#ag"/><use transform="matrix(0.022222222222222223,0,0,0.022222222222222223,98.97777777777779,0)" xlink:href="#ab"/></g><path fill="#333" d="M305-523c165 3 256 102 256 267 0 164-91 270-256 270C141 14 52-92 50-256c-2-160 95-269 255-267zm0 68c-116 0-167 83-167 199S190-54 305-54c116 0 169-86 169-202 0-117-53-199-169-199" id="ah"/><path fill="#333" d="M41-381c-4-162 252-177 353-88l-38 53c-39-27-82-41-128-41-98 0-143 107-54 139 97 35 229 46 229 174C403 35 133 53 25-45l39-53c42 28 78 41 142 45 80 4 134-58 99-129-26-31-59-35-113-51-89-25-148-50-151-148" id="ai"/><g id="c"><use transform="matrix(0.022222222222222223,0,0,0.022222222222222223,0,0)" xlink:href="#Z"/><use transform="matrix(0.022222222222222223,0,0,0.022222222222222223,13.822222222222223,0)" xlink:href="#ah"/><use transform="matrix(0.022222222222222223,0,0,0.022222222222222223,27.400000000000002,0)" xlink:href="#ai"/><use transform="matrix(0.022222222222222223,0,0,0.022222222222222223,37.22222222222222,0)" xlink:href="#ae"/><use transform="matrix(0.022222222222222223,0,0,0.022222222222222223,45.15555555555555,0)" xlink:href="#aa"/><use transform="matrix(0.022222222222222223,0,0,0.022222222222222223,52.822222222222216,0)" xlink:href="#ab"/><use transform="matrix(0.022222222222222223,0,0,0.022222222222222223,65.24444444444444,0)" xlink:href="#ae"/><use transform="matrix(0.022222222222222223,0,0,0.022222222222222223,73.17777777777778,0)" xlink:href="#aa"/><use transform="matrix(0.022222222222222223,0,0,0.022222222222222223,81.26666666666667,0)" xlink:href="#af"/><use transform="matrix(0.022222222222222223,0,0,0.022222222222222223,87,0)" xlink:href="#ab"/><use transform="matrix(0.022222222222222223,0,0,0.022222222222222223,99.4,0)" xlink:href="#ag"/><use transform="matrix(0.022222222222222223,0,0,0.022222222222222223,110.08888888888889,0)" xlink:href="#ab"/></g><path fill="#333" d="M50-255c-6-191 150-312 344-253 29 10 54 23 77 40l-34 59c-39-29-84-43-135-43-113-1-166 83-166 197 0 112 54 199 165 197 46 0 92-14 137-43l31 60C418-4 360 14 295 14 131 13 55-96 50-255" id="aj"/><path fill="#333" d="M50-253c3-155 81-270 235-270 68 0 123 22 166 66v-251h85v595c0 37 2 74 7 113h-79c-6-29-4-58-9-76-38 60-99 90-182 90C125 14 47-103 50-253zM292-54c94 1 159-71 159-165v-160c-36-45-79-74-154-75-104-1-159 92-159 201 0 111 50 197 154 199" id="ak"/><path fill="#333" d="M206 14C109 15 40-41 42-139c1-169 156-177 340-175 7-97-33-143-126-142-54 0-105 14-153 43l-30-57c57-35 120-53 188-53 141 0 204 63 206 202 1 110-5 220 7 321h-78c-5-29-7-52-7-69h-3c-38 54-89 83-180 83zm22-67c89-2 148-53 154-135v-66s-251-9-252 110c0 59 38 91 98 91" id="al"/><g id="d"><use transform="matrix(0.022222222222222223,0,0,0.022222222222222223,0,0)" xlink:href="#Z"/><use transform="matrix(0.022222222222222223,0,0,0.022222222222222223,13.822222222222223,0)" xlink:href="#ah"/><use transform="matrix(0.022222222222222223,0,0,0.022222222222222223,27.400000000000002,0)" xlink:href="#ai"/><use transform="matrix(0.022222222222222223,0,0,0.022222222222222223,37.22222222222222,0)" xlink:href="#ae"/><use transform="matrix(0.022222222222222223,0,0,0.022222222222222223,45.15555555555555,0)" xlink:href="#ai"/><use transform="matrix(0.022222222222222223,0,0,0.022222222222222223,54.97777777777777,0)" xlink:href="#ah"/><use transform="matrix(0.022222222222222223,0,0,0.022222222222222223,68.55555555555556,0)" xlink:href="#ac"/><use transform="matrix(0.022222222222222223,0,0,0.022222222222222223,82.22222222222223,0)" xlink:href="#aa"/><use transform="matrix(0.022222222222222223,0,0,0.022222222222222223,89.8888888888889,0)" xlink:href="#aj"/><use transform="matrix(0.022222222222222223,0,0,0.022222222222222223,100.71111111111111,0)" xlink:href="#ab"/><use transform="matrix(0.022222222222222223,0,0,0.022222222222222223,113.26666666666667,0)" xlink:href="#ac"/><use transform="matrix(0.022222222222222223,0,0,0.022222222222222223,126.93333333333335,0)" xlink:href="#Z"/><use transform="matrix(0.022222222222222223,0,0,0.022222222222222223,140.7555555555556,0)" xlink:href="#ak"/><use transform="matrix(0.022222222222222223,0,0,0.022222222222222223,154.5555555555556,0)" xlink:href="#al"/><use transform="matrix(0.022222222222222223,0,0,0.022222222222222223,166.5555555555556,0)" xlink:href="#ae"/><use transform="matrix(0.022222222222222223,0,0,0.022222222222222223,174.20000000000005,0)" xlink:href="#ab"/></g><path fill="#333" d="M519-192C526 49 168 67 30-66l45-56c53 42 105 63 193 64 90 1 164-42 161-131-3-108-85-124-177-151-113-33-191-67-197-195-9-210 320-235 451-122l-40 58c-51-32-98-52-175-53-81-1-152 34-149 111 4 95 69 103 160 131 125 38 213 72 217 218" id="am"/><path fill="#333" d="M520-635H179v242h302v72H179V0H90v-708h430v73" id="an"/><path fill="#333" d="M316-708c234 0 367 116 367 353C683-126 546 1 318 0H90v-708h226zm-7 634c186-1 284-92 283-281 0-187-94-280-282-280H178v561h131" id="ao"/><path fill="#333" d="M610 0H507c-66-104-133-207-199-311C242-208 177-104 111 0H7c83-125 166-250 249-374L34-708h102l174 277 173-277h100c-73 112-151 224-221 336" id="ap"/><path fill="#333" d="M557 174H53v-69h504v69" id="aq"/><path fill="#333" d="M226-68h84V0H54v-68h84v-574H54v-66h256v66h-84v574" id="ar"/><path fill="#333" d="M495-172H163L97 0H4l280-708h93L655 0h-96zm-307-69h282L329-624" id="as"/><path fill="#333" d="M339-708c123 1 213 48 213 173 0 88-60 143-128 162 94 11 159 73 159 177C583-58 480-1 344 0H90v-708h249zm-21 307c84 0 146-41 145-124 0-77-48-115-144-115H176v239h142zm174 196c-2-92-65-133-161-132H176v268c152 2 319 17 316-136" id="at"/><path fill="#333" d="M179-75h324V0H90v-708h89v633" id="au"/><path fill="#333" d="M519-637H178v238h297v68H178v258h358V0H90v-708h429v71" id="av"/><path fill="#333" d="M329-708c148 1 256 75 253 230-3 151-104 233-251 233H179V0H90v-708h239zm162 231c0-108-70-160-170-160H178v320h145c95 0 168-60 168-160" id="aw"/><path fill="#333" d="M571-480c1 116-68 180-159 207L590 0H488L327-259H179V0H90v-708h233c148 3 246 78 248 228zm-91 0c0-100-69-157-163-157H178v310h142c93 0 160-56 160-153" id="ax"/><path fill="#333" d="M540-633H317V0h-89v-633H4v-75h536v75" id="ay"/><g id="e"><use transform="matrix(0.017777777777777774,0,0,0.017777777777777774,0,0)" xlink:href="#am"/><use transform="matrix(0.017777777777777774,0,0,0.017777777777777774,9.937777777777775,0)" xlink:href="#an"/><use transform="matrix(0.017777777777777774,0,0,0.017777777777777774,19.502222222222215,0)" xlink:href="#ao"/><use transform="matrix(0.017777777777777774,0,0,0.017777777777777774,32.515555555555544,0)" xlink:href="#ap"/><use transform="matrix(0.017777777777777774,0,0,0.017777777777777774,43.484444444444435,0)" xlink:href="#aq"/><use transform="matrix(0.017777777777777774,0,0,0.017777777777777774,54.328888888888876,0)" xlink:href="#ao"/><use transform="matrix(0.017777777777777774,0,0,0.017777777777777774,67.05777777777776,0)" xlink:href="#ar"/><use transform="matrix(0.017777777777777774,0,0,0.017777777777777774,73.3511111111111,0)" xlink:href="#am"/><use transform="matrix(0.017777777777777774,0,0,0.017777777777777774,83.18222222222221,0)" xlink:href="#as"/><use transform="matrix(0.017777777777777774,0,0,0.017777777777777774,94.91555555555554,0)" xlink:href="#at"/><use transform="matrix(0.017777777777777774,0,0,0.017777777777777774,106.0622222222222,0)" xlink:href="#au"/><use transform="matrix(0.017777777777777774,0,0,0.017777777777777774,115.05777777777776,0)" xlink:href="#av"/><use transform="matrix(0.017777777777777774,0,0,0.017777777777777774,125.06666666666665,0)" xlink:href="#aq"/><use transform="matrix(0.017777777777777774,0,0,0.017777777777777774,135.9111111111111,0)" xlink:href="#aw"/><use transform="matrix(0.017777777777777774,0,0,0.017777777777777774,146.7733333333333,0)" xlink:href="#ax"/><use transform="matrix(0.017777777777777774,0,0,0.017777777777777774,157.95555555555552,0)" xlink:href="#av"/><use transform="matrix(0.017777777777777774,0,0,0.017777777777777774,167.9644444444444,0)" xlink:href="#ay"/><use transform="matrix(0.017777777777777774,0,0,0.017777777777777774,177.6533333333333,0)" xlink:href="#ay"/><use transform="matrix(0.017777777777777774,0,0,0.017777777777777774,187.3422222222222,0)" xlink:href="#ar"/><use transform="matrix(0.017777777777777774,0,0,0.017777777777777774,193.8133333333333,0)" xlink:href="#av"/><use transform="matrix(0.017777777777777774,0,0,0.017777777777777774,203.8222222222222,0)" xlink:href="#ax"/></g><path fill="#333" d="M248 123C149-15 64-138 64-354c0-214 86-341 184-477l55 35c-82 130-148 247-148 442S221-42 303 88" id="az"/><path fill="#333" d="M348-523c153 3 225 113 225 268 0 159-84 269-242 269-64 0-119-22-166-67l-8 53H87v-708h85v272h3c32-52 90-88 173-87zM321-54c109 1 165-89 165-201 0-111-49-200-153-200-99 0-161 67-161 165v169c40 39 78 65 149 67" id="aA"/><path fill="#333" d="M172-708V0H87v-708h85" id="aB"/><g id="f"><use transform="matrix(0.013333333333333329,0,0,0.013333333333333329,0,0)" xlink:href="#az"/><use transform="matrix(0.013333333333333329,0,0,0.013333333333333329,4.906666666666665,0)" xlink:href="#ak"/><use transform="matrix(0.013333333333333329,0,0,0.013333333333333329,13.186666666666664,0)" xlink:href="#af"/><use transform="matrix(0.013333333333333329,0,0,0.013333333333333329,16.62666666666666,0)" xlink:href="#ai"/><use transform="matrix(0.013333333333333329,0,0,0.013333333333333329,22.519999999999992,0)" xlink:href="#al"/><use transform="matrix(0.013333333333333329,0,0,0.013333333333333329,29.79999999999999,0)" xlink:href="#aA"/><use transform="matrix(0.013333333333333329,0,0,0.013333333333333329,38.09333333333332,0)" xlink:href="#aB"/><use transform="matrix(0.013333333333333329,0,0,0.013333333333333329,41.53333333333332,0)" xlink:href="#ab"/></g><path fill="#333" d="M315-453c-88 0-144 74-144 161V0H86c-3-170 7-349-7-509h81c5 17 3 46 9 72 30-48 90-86 168-86 89 0 140 43 168 103 32-60 90-104 179-103 122 1 187 78 187 197V0h-85v-314c-1-78-37-142-120-139-97 3-146 77-146 174V0h-85v-316c-1-77-39-137-120-137" id="aC"/><g id="g"><use transform="matrix(0.013333333333333329,0,0,0.013333333333333329,0,0)" xlink:href="#Z"/><use transform="matrix(0.013333333333333329,0,0,0.013333333333333329,8.293333333333331,0)" xlink:href="#aa"/><use transform="matrix(0.013333333333333329,0,0,0.013333333333333329,12.893333333333329,0)" xlink:href="#ab"/><use transform="matrix(0.013333333333333329,0,0,0.013333333333333329,20.34666666666666,0)" xlink:href="#ae"/><use transform="matrix(0.013333333333333329,0,0,0.013333333333333329,25.10666666666666,0)" xlink:href="#ae"/><use transform="matrix(0.013333333333333329,0,0,0.013333333333333329,29.866666666666656,0)" xlink:href="#af"/><use transform="matrix(0.013333333333333329,0,0,0.013333333333333329,33.30666666666666,0)" xlink:href="#ab"/><use transform="matrix(0.013333333333333329,0,0,0.013333333333333329,40.83999999999999,0)" xlink:href="#aa"/><use transform="matrix(0.013333333333333329,0,0,0.013333333333333329,45.69333333333332,0)" xlink:href="#an"/><use transform="matrix(0.013333333333333329,0,0,0.013333333333333329,52.19999999999999,0)" xlink:href="#ah"/><use transform="matrix(0.013333333333333329,0,0,0.013333333333333329,60.34666666666665,0)" xlink:href="#aa"/><use transform="matrix(0.013333333333333329,0,0,0.013333333333333329,65.19999999999999,0)" xlink:href="#aC"/><use transform="matrix(0.013333333333333329,0,0,0.013333333333333329,77.7333333333333,0)" xlink:href="#al"/><use transform="matrix(0.013333333333333329,0,0,0.013333333333333329,84.93333333333331,0)" xlink:href="#ae"/></g><path fill="#333" d="M324-452c-91 0-152 70-152 160V0H87v-708h85c1 89-3 184 2 270 34-50 90-85 174-85 123 0 188 80 188 194V0h-85v-312c-1-82-40-140-127-140" id="aD"/><path fill="#333" d="M221-244l-49 46V0H87v-708h85v414l231-215h102L280-299 527 0H421" id="aE"/><path fill="#333" d="M120-831c98 136 184 263 184 477 0 216-85 339-184 477L65 88c82-130 148-247 148-442S147-666 65-796" id="aF"/><g id="h"><use transform="matrix(0.013333333333333329,0,0,0.013333333333333329,0,0)" xlink:href="#aD"/><use transform="matrix(0.013333333333333329,0,0,0.013333333333333329,8.199999999999998,0)" xlink:href="#ah"/><use transform="matrix(0.013333333333333329,0,0,0.013333333333333329,16.346666666666664,0)" xlink:href="#ah"/><use transform="matrix(0.013333333333333329,0,0,0.013333333333333329,24.49333333333333,0)" xlink:href="#aE"/><use transform="matrix(0.013333333333333329,0,0,0.013333333333333329,31.546666666666663,0)" xlink:href="#aF"/></g><path fill="#333" d="M104-509c-11-136 44-213 171-213 33 0 62 4 89 13l-19 61c-85-20-162 3-156 97v42h128v65H189V0h-85v-444H15v-54" id="aG"/><g id="i"><use transform="matrix(0.017777777777777774,0,0,0.017777777777777774,0,0)" xlink:href="#Z"/><use transform="matrix(0.017777777777777774,0,0,0.017777777777777774,11.057777777777776,0)" xlink:href="#aa"/><use transform="matrix(0.017777777777777774,0,0,0.017777777777777774,17.19111111111111,0)" xlink:href="#ah"/><use transform="matrix(0.017777777777777774,0,0,0.017777777777777774,27.946666666666665,0)" xlink:href="#aG"/><use transform="matrix(0.017777777777777774,0,0,0.017777777777777774,33.81333333333333,0)" xlink:href="#af"/><use transform="matrix(0.017777777777777774,0,0,0.017777777777777774,38.4,0)" xlink:href="#aB"/><use transform="matrix(0.017777777777777774,0,0,0.017777777777777774,42.986666666666665,0)" xlink:href="#ab"/><use transform="matrix(0.017777777777777774,0,0,0.017777777777777774,53.03111111111111,0)" xlink:href="#ai"/></g><path fill="#333" d="M246-724c151-4 255 121 197 265-28 71-120 113-167 167-18 21-21 40-20 74h-81c-18-179 190-162 194-315 2-74-53-119-129-118-87 1-127 36-173 84l-54-46c57-65 119-108 233-111zM216 8c-38 0-55-20-56-55 0-37 19-56 56-56s55 19 55 56c0 35-18 55-55 55" id="aH"/><g id="j"><use transform="matrix(0.017777777777777774,0,0,0.017777777777777774,0,0)" xlink:href="#aa"/><use transform="matrix(0.017777777777777774,0,0,0.017777777777777774,6.133333333333333,0)" xlink:href="#ab"/><use transform="matrix(0.017777777777777774,0,0,0.017777777777777774,16.071111111111108,0)" xlink:href="#ae"/><use transform="matrix(0.017777777777777774,0,0,0.017777777777777774,22.417777777777772,0)" xlink:href="#aa"/><use transform="matrix(0.017777777777777774,0,0,0.017777777777777774,28.888888888888882,0)" xlink:href="#af"/><use transform="matrix(0.017777777777777774,0,0,0.017777777777777774,33.475555555555545,0)" xlink:href="#ab"/><use transform="matrix(0.017777777777777774,0,0,0.017777777777777774,43.395555555555546,0)" xlink:href="#ag"/><use transform="matrix(0.017777777777777774,0,0,0.017777777777777774,51.94666666666666,0)" xlink:href="#ab"/><use transform="matrix(0.017777777777777774,0,0,0.017777777777777774,61.991111111111096,0)" xlink:href="#ak"/><use transform="matrix(0.017777777777777774,0,0,0.017777777777777774,73.0311111111111,0)" xlink:href="#aH"/></g><path fill="#333" d="M134 8C96 8 79-12 78-47c0-37 19-56 56-56s55 19 55 56c0 35-18 55-55 55" id="aI"/><g id="k"><use transform="matrix(0.017777777777777774,0,0,0.017777777777777774,0,0)" xlink:href="#Z"/><use transform="matrix(0.017777777777777774,0,0,0.017777777777777774,11.057777777777776,0)" xlink:href="#ab"/><use transform="matrix(0.017777777777777774,0,0,0.017777777777777774,21.102222222222217,0)" xlink:href="#aa"/><use transform="matrix(0.017777777777777774,0,0,0.017777777777777774,27.573333333333327,0)" xlink:href="#aC"/><use transform="matrix(0.017777777777777774,0,0,0.017777777777777774,44.4622222222222,0)" xlink:href="#aI"/></g><g id="l"><use transform="matrix(0.017777777777777774,0,0,0.017777777777777774,0,0)" xlink:href="#ai"/><use transform="matrix(0.017777777777777774,0,0,0.017777777777777774,7.857777777777776,0)" xlink:href="#ab"/><use transform="matrix(0.017777777777777774,0,0,0.017777777777777774,17.795555555555552,0)" xlink:href="#ae"/><use transform="matrix(0.017777777777777774,0,0,0.017777777777777774,24.142222222222216,0)" xlink:href="#ai"/></g><path fill="#333" d="M269-256H44v-69h225v69" id="aJ"/><g id="m"><use transform="matrix(0.017777777777777774,0,0,0.017777777777777774,0,0)" xlink:href="#ai"/><use transform="matrix(0.017777777777777774,0,0,0.017777777777777774,7.857777777777776,0)" xlink:href="#aD"/><use transform="matrix(0.017777777777777774,0,0,0.017777777777777774,18.791111111111107,0)" xlink:href="#aa"/><use transform="matrix(0.017777777777777774,0,0,0.017777777777777774,25.262222222222217,0)" xlink:href="#af"/><use transform="matrix(0.017777777777777774,0,0,0.017777777777777774,29.848888888888883,0)" xlink:href="#ad"/><use transform="matrix(0.017777777777777774,0,0,0.017777777777777774,40.764444444444436,0)" xlink:href="#aE"/><use transform="matrix(0.017777777777777774,0,0,0.017777777777777774,49.45777777777777,0)" xlink:href="#aJ"/></g><g id="n"><use transform="matrix(0.017777777777777774,0,0,0.017777777777777774,0,0)" xlink:href="#aw"/><use transform="matrix(0.017777777777777774,0,0,0.017777777777777774,10.328888888888887,0)" xlink:href="#ab"/><use transform="matrix(0.017777777777777774,0,0,0.017777777777777774,20.373333333333328,0)" xlink:href="#aa"/><use transform="matrix(0.017777777777777774,0,0,0.017777777777777774,26.844444444444438,0)" xlink:href="#aC"/><use transform="matrix(0.017777777777777774,0,0,0.017777777777777774,43.73333333333332,0)" xlink:href="#af"/><use transform="matrix(0.017777777777777774,0,0,0.017777777777777774,48.31999999999998,0)" xlink:href="#ai"/><use transform="matrix(0.017777777777777774,0,0,0.017777777777777774,56.17777777777777,0)" xlink:href="#ai"/><use transform="matrix(0.017777777777777774,0,0,0.017777777777777774,64.03555555555553,0)" xlink:href="#af"/><use transform="matrix(0.017777777777777774,0,0,0.017777777777777774,68.6222222222222,0)" xlink:href="#ah"/><use transform="matrix(0.017777777777777774,0,0,0.017777777777777774,79.4844444444444,0)" xlink:href="#ad"/><use transform="matrix(0.017777777777777774,0,0,0.017777777777777774,90.39999999999998,0)" xlink:href="#am"/><use transform="matrix(0.017777777777777774,0,0,0.017777777777777774,100.33777777777775,0)" xlink:href="#ab"/><use transform="matrix(0.017777777777777774,0,0,0.017777777777777774,110.27555555555551,0)" xlink:href="#ae"/><use transform="matrix(0.017777777777777774,0,0,0.017777777777777774,116.62222222222218,0)" xlink:href="#ai"/></g><path fill="#333" d="M245 124c-31 80-63 130-160 133-26 0-50-4-71-12l17-63C159 220 168 89 202 3L4-509h92c50 139 97 282 150 419l136-419h87" id="aK"/><path fill="#333" d="M517 0H415L259-214 109 0H9l198-267L31-509h97l135 193 134-193h92L315-267" id="aL"/><g id="o"><use transform="matrix(0.017777777777777774,0,0,0.017777777777777774,0,0)" xlink:href="#al"/><use transform="matrix(0.017777777777777774,0,0,0.017777777777777774,9.706666666666665,0)" xlink:href="#Z"/><use transform="matrix(0.017777777777777774,0,0,0.017777777777777774,20.764444444444443,0)" xlink:href="#Z"/><use transform="matrix(0.017777777777777774,0,0,0.017777777777777774,31.82222222222222,0)" xlink:href="#aB"/><use transform="matrix(0.017777777777777774,0,0,0.017777777777777774,36.40888888888888,0)" xlink:href="#aK"/><use transform="matrix(0.017777777777777774,0,0,0.017777777777777774,44.835555555555544,0)" xlink:href="#am"/><use transform="matrix(0.017777777777777774,0,0,0.017777777777777774,54.77333333333332,0)" xlink:href="#ah"/><use transform="matrix(0.017777777777777774,0,0,0.017777777777777774,65.63555555555554,0)" xlink:href="#ac"/><use transform="matrix(0.017777777777777774,0,0,0.017777777777777774,76.56888888888888,0)" xlink:href="#aa"/><use transform="matrix(0.017777777777777774,0,0,0.017777777777777774,82.70222222222222,0)" xlink:href="#aj"/><use transform="matrix(0.017777777777777774,0,0,0.017777777777777774,91.35999999999999,0)" xlink:href="#ab"/><use transform="matrix(0.017777777777777774,0,0,0.017777777777777774,101.40444444444442,0)" xlink:href="#an"/><use transform="matrix(0.017777777777777774,0,0,0.017777777777777774,110.61333333333332,0)" xlink:href="#af"/><use transform="matrix(0.017777777777777774,0,0,0.017777777777777774,115.19999999999999,0)" xlink:href="#aL"/><use transform="matrix(0.017777777777777774,0,0,0.017777777777777774,124.08888888888887,0)" xlink:href="#ab"/><use transform="matrix(0.017777777777777774,0,0,0.017777777777777774,134.13333333333333,0)" xlink:href="#ai"/></g><g id="p"><use transform="matrix(0.013333333333333329,0,0,0.013333333333333329,0,0)" xlink:href="#az"/><use transform="matrix(0.013333333333333329,0,0,0.013333333333333329,4.906666666666665,0)" xlink:href="#ai"/><use transform="matrix(0.013333333333333329,0,0,0.013333333333333329,10.799999999999997,0)" xlink:href="#ab"/><use transform="matrix(0.013333333333333329,0,0,0.013333333333333329,18.33333333333333,0)" xlink:href="#ab"/></g><path fill="#333" d="M-20 187c74 14 106-21 106-97v-599h85V89c5 135-83 191-206 161zm150-818c-37 0-55-19-56-52 0-36 19-54 56-54s55 18 55 54c-1 33-19 52-55 52" id="aM"/><g id="q"><use transform="matrix(0.013333333333333329,0,0,0.013333333333333329,0,0)" xlink:href="#aI"/><use transform="matrix(0.013333333333333329,0,0,0.013333333333333329,3.5599999999999987,0)" xlink:href="#ai"/><use transform="matrix(0.013333333333333329,0,0,0.013333333333333329,9.45333333333333,0)" xlink:href="#aG"/><use transform="matrix(0.013333333333333329,0,0,0.013333333333333329,13.853333333333328,0)" xlink:href="#ak"/><use transform="matrix(0.013333333333333329,0,0,0.013333333333333329,22.133333333333326,0)" xlink:href="#aL"/><use transform="matrix(0.013333333333333329,0,0,0.013333333333333329,28.47999999999999,0)" xlink:href="#aJ"/><use transform="matrix(0.013333333333333329,0,0,0.013333333333333329,32.65333333333332,0)" xlink:href="#aM"/><use transform="matrix(0.013333333333333329,0,0,0.013333333333333329,36.09333333333332,0)" xlink:href="#al"/><use transform="matrix(0.013333333333333329,0,0,0.013333333333333329,43.02666666666666,0)" xlink:href="#aK"/><use transform="matrix(0.013333333333333329,0,0,0.013333333333333329,49.34666666666666,0)" xlink:href="#aa"/><use transform="matrix(0.013333333333333329,0,0,0.013333333333333329,53.94666666666666,0)" xlink:href="#ab"/><use transform="matrix(0.013333333333333329,0,0,0.013333333333333329,61.47999999999999,0)" xlink:href="#ab"/><use transform="matrix(0.013333333333333329,0,0,0.013333333333333329,69.01333333333332,0)" xlink:href="#aJ"/><use transform="matrix(0.013333333333333329,0,0,0.013333333333333329,73.18666666666665,0)" xlink:href="#ab"/><use transform="matrix(0.013333333333333329,0,0,0.013333333333333329,80.37333333333332,0)" xlink:href="#aL"/><use transform="matrix(0.013333333333333329,0,0,0.013333333333333329,87.25333333333332,0)" xlink:href="#al"/><use transform="matrix(0.013333333333333329,0,0,0.013333333333333329,94.53333333333332,0)" xlink:href="#aC"/><use transform="matrix(0.013333333333333329,0,0,0.013333333333333329,107.19999999999997,0)" xlink:href="#Z"/><use transform="matrix(0.013333333333333329,0,0,0.013333333333333329,115.49333333333333,0)" xlink:href="#aB"/><use transform="matrix(0.013333333333333329,0,0,0.013333333333333329,118.93333333333332,0)" xlink:href="#ab"/><use transform="matrix(0.013333333333333329,0,0,0.013333333333333329,126.25333333333329,0)" xlink:href="#aI"/><use transform="matrix(0.013333333333333329,0,0,0.013333333333333329,129.8133333333333,0)" xlink:href="#aM"/><use transform="matrix(0.013333333333333329,0,0,0.013333333333333329,133.2533333333333,0)" xlink:href="#ai"/><use transform="matrix(0.013333333333333329,0,0,0.013333333333333329,139.14666666666665,0)" xlink:href="#ah"/><use transform="matrix(0.013333333333333329,0,0,0.013333333333333329,147.29333333333332,0)" xlink:href="#ad"/><use transform="matrix(0.013333333333333329,0,0,0.013333333333333329,155.48,0)" xlink:href="#aF"/></g><g id="r"><use transform="matrix(0.017777777777777774,0,0,0.017777777777777774,0,0)" xlink:href="#ac"/><use transform="matrix(0.017777777777777774,0,0,0.017777777777777774,10.933333333333332,0)" xlink:href="#Z"/><use transform="matrix(0.017777777777777774,0,0,0.017777777777777774,21.99111111111111,0)" xlink:href="#ak"/><use transform="matrix(0.017777777777777774,0,0,0.017777777777777774,33.03111111111111,0)" xlink:href="#al"/><use transform="matrix(0.017777777777777774,0,0,0.017777777777777774,42.6311111111111,0)" xlink:href="#ae"/><use transform="matrix(0.017777777777777774,0,0,0.017777777777777774,48.746666666666655,0)" xlink:href="#ab"/><use transform="matrix(0.017777777777777774,0,0,0.017777777777777774,58.7911111111111,0)" xlink:href="#aw"/><use transform="matrix(0.017777777777777774,0,0,0.017777777777777774,69.29777777777777,0)" xlink:href="#aa"/><use transform="matrix(0.017777777777777774,0,0,0.017777777777777774,75.43111111111111,0)" xlink:href="#ah"/><use transform="matrix(0.017777777777777774,0,0,0.017777777777777774,86.18666666666665,0)" xlink:href="#aG"/><use transform="matrix(0.017777777777777774,0,0,0.017777777777777774,92.05333333333331,0)" xlink:href="#af"/><use transform="matrix(0.017777777777777774,0,0,0.017777777777777774,96.63999999999999,0)" xlink:href="#aB"/><use transform="matrix(0.017777777777777774,0,0,0.017777777777777774,101.22666666666666,0)" xlink:href="#ab"/><use transform="matrix(0.017777777777777774,0,0,0.017777777777777774,111.27111111111108,0)" xlink:href="#ai"/></g><g id="s"><use transform="matrix(0.015555555555555552,0,0,0.015555555555555552,0,0)" xlink:href="#aa"/><use transform="matrix(0.015555555555555552,0,0,0.015555555555555552,5.366666666666665,0)" xlink:href="#ab"/><use transform="matrix(0.015555555555555552,0,0,0.015555555555555552,14.155555555555551,0)" xlink:href="#aJ"/><use transform="matrix(0.015555555555555552,0,0,0.015555555555555552,19.02444444444444,0)" xlink:href="#ax"/><use transform="matrix(0.015555555555555552,0,0,0.015555555555555552,28.497777777777774,0)" xlink:href="#ab"/><use transform="matrix(0.015555555555555552,0,0,0.015555555555555552,37.19333333333333,0)" xlink:href="#ae"/><use transform="matrix(0.015555555555555552,0,0,0.015555555555555552,42.74666666666666,0)" xlink:href="#aa"/><use transform="matrix(0.015555555555555552,0,0,0.015555555555555552,48.40888888888888,0)" xlink:href="#af"/><use transform="matrix(0.015555555555555552,0,0,0.015555555555555552,52.42222222222222,0)" xlink:href="#ab"/><use transform="matrix(0.015555555555555552,0,0,0.015555555555555552,61.10222222222221,0)" xlink:href="#ag"/><use transform="matrix(0.015555555555555552,0,0,0.015555555555555552,68.58444444444443,0)" xlink:href="#ab"/><use transform="matrix(0.015555555555555552,0,0,0.015555555555555552,77.37333333333332,0)" xlink:href="#aJ"/></g><g id="t"><use transform="matrix(0.015555555555555552,0,0,0.015555555555555552,0,0)" xlink:href="#aw"/><use transform="matrix(0.015555555555555552,0,0,0.015555555555555552,9.19333333333333,0)" xlink:href="#aa"/><use transform="matrix(0.015555555555555552,0,0,0.015555555555555552,14.559999999999995,0)" xlink:href="#ah"/><use transform="matrix(0.015555555555555552,0,0,0.015555555555555552,23.971111111111103,0)" xlink:href="#aG"/><use transform="matrix(0.015555555555555552,0,0,0.015555555555555552,29.104444444444436,0)" xlink:href="#af"/><use transform="matrix(0.015555555555555552,0,0,0.015555555555555552,33.11777777777777,0)" xlink:href="#aB"/><use transform="matrix(0.015555555555555552,0,0,0.015555555555555552,37.1311111111111,0)" xlink:href="#ab"/><use transform="matrix(0.015555555555555552,0,0,0.015555555555555552,45.91999999999999,0)" xlink:href="#ai"/></g><g id="u"><use transform="matrix(0.015555555555555548,0,0,0.015555555555555548,0,0)" xlink:href="#Z"/><use transform="matrix(0.015555555555555548,0,0,0.015555555555555548,9.675555555555551,0)" xlink:href="#aa"/><use transform="matrix(0.015555555555555548,0,0,0.015555555555555548,15.042222222222215,0)" xlink:href="#ah"/><use transform="matrix(0.015555555555555548,0,0,0.015555555555555548,24.45333333333332,0)" xlink:href="#aG"/><use transform="matrix(0.015555555555555548,0,0,0.015555555555555548,29.586666666666652,0)" xlink:href="#af"/><use transform="matrix(0.015555555555555548,0,0,0.015555555555555548,33.59999999999998,0)" xlink:href="#aB"/><use transform="matrix(0.015555555555555548,0,0,0.015555555555555548,37.613333333333316,0)" xlink:href="#ab"/><use transform="matrix(0.015555555555555548,0,0,0.015555555555555548,46.4022222222222,0)" xlink:href="#av"/><use transform="matrix(0.015555555555555548,0,0,0.015555555555555548,55.159999999999975,0)" xlink:href="#aB"/><use transform="matrix(0.015555555555555548,0,0,0.015555555555555548,59.173333333333304,0)" xlink:href="#ab"/><use transform="matrix(0.015555555555555548,0,0,0.015555555555555548,67.96222222222218,0)" xlink:href="#aC"/><use transform="matrix(0.015555555555555548,0,0,0.015555555555555548,82.73999999999995,0)" xlink:href="#ab"/><use transform="matrix(0.015555555555555548,0,0,0.015555555555555548,91.52888888888884,0)" xlink:href="#ad"/><use transform="matrix(0.015555555555555548,0,0,0.015555555555555548,100.98666666666662,0)" xlink:href="#ae"/><use transform="matrix(0.015555555555555548,0,0,0.015555555555555548,106.53999999999995,0)" xlink:href="#ar"/><use transform="matrix(0.015555555555555548,0,0,0.015555555555555548,112.20222222222216,0)" xlink:href="#ad"/><use transform="matrix(0.015555555555555548,0,0,0.015555555555555548,121.75333333333327,0)" xlink:href="#aM"/><use transform="matrix(0.015555555555555548,0,0,0.015555555555555548,125.76666666666661,0)" xlink:href="#ab"/><use transform="matrix(0.015555555555555548,0,0,0.015555555555555548,134.5555555555555,0)" xlink:href="#aj"/><use transform="matrix(0.015555555555555548,0,0,0.015555555555555548,142.69111111111104,0)" xlink:href="#ae"/><use transform="matrix(0.015555555555555548,0,0,0.015555555555555548,148.24444444444438,0)" xlink:href="#af"/><use transform="matrix(0.015555555555555548,0,0,0.015555555555555548,152.2577777777777,0)" xlink:href="#ah"/><use transform="matrix(0.015555555555555548,0,0,0.015555555555555548,161.76222222222214,0)" xlink:href="#ad"/></g><g id="w"><use transform="matrix(0.015555555555555552,0,0,0.015555555555555552,0,0)" xlink:href="#az"/><use transform="matrix(0.013333333333333329,0,0,0.013333333333333329,5.724444444444443,0)" xlink:href="#ai"/><use transform="matrix(0.013333333333333329,0,0,0.013333333333333329,11.617777777777775,0)" xlink:href="#ab"/><use transform="matrix(0.013333333333333329,0,0,0.013333333333333329,19.151111111111106,0)" xlink:href="#ab"/></g><path fill="#333" d="M404 17C175 17 49-126 49-354s126-371 355-371 355 143 355 371S633 17 404 17zm1-77c173 0 264-121 264-294s-91-294-264-294c-174 0-265 121-265 294S231-60 405-60" id="aN"/><g id="x"><use transform="matrix(0.015555555555555552,0,0,0.015555555555555552,0,0)" xlink:href="#ab"/><use transform="matrix(0.015555555555555552,0,0,0.015555555555555552,8.788888888888886,0)" xlink:href="#ad"/><use transform="matrix(0.015555555555555552,0,0,0.015555555555555552,18.339999999999996,0)" xlink:href="#ai"/><use transform="matrix(0.015555555555555552,0,0,0.015555555555555552,25.21555555555555,0)" xlink:href="#ac"/><use transform="matrix(0.015555555555555552,0,0,0.015555555555555552,34.78222222222222,0)" xlink:href="#aa"/><use transform="matrix(0.015555555555555552,0,0,0.015555555555555552,40.148888888888884,0)" xlink:href="#ab"/><use transform="matrix(0.015555555555555552,0,0,0.015555555555555552,48.93777777777777,0)" xlink:href="#aN"/><use transform="matrix(0.015555555555555552,0,0,0.015555555555555552,61.52222222222221,0)" xlink:href="#aA"/><use transform="matrix(0.015555555555555552,0,0,0.015555555555555552,71.19777777777776,0)" xlink:href="#aM"/><use transform="matrix(0.015555555555555552,0,0,0.015555555555555552,75.2111111111111,0)" xlink:href="#ab"/><use transform="matrix(0.015555555555555552,0,0,0.015555555555555552,83.99999999999999,0)" xlink:href="#aj"/><use transform="matrix(0.015555555555555552,0,0,0.015555555555555552,92.13555555555554,0)" xlink:href="#ae"/><use transform="matrix(0.015555555555555552,0,0,0.015555555555555552,97.43999999999998,0)" xlink:href="#aJ"/></g><g id="y"><use transform="matrix(0.015555555555555552,0,0,0.015555555555555552,0,0)" xlink:href="#aw"/><use transform="matrix(0.015555555555555552,0,0,0.015555555555555552,9.037777777777775,0)" xlink:href="#ab"/><use transform="matrix(0.015555555555555552,0,0,0.015555555555555552,17.82666666666666,0)" xlink:href="#aa"/><use transform="matrix(0.015555555555555552,0,0,0.015555555555555552,23.48888888888888,0)" xlink:href="#aC"/><use transform="matrix(0.015555555555555552,0,0,0.015555555555555552,38.26666666666665,0)" xlink:href="#af"/><use transform="matrix(0.015555555555555552,0,0,0.015555555555555552,42.27999999999999,0)" xlink:href="#ai"/><use transform="matrix(0.015555555555555552,0,0,0.015555555555555552,49.15555555555554,0)" xlink:href="#ai"/><use transform="matrix(0.015555555555555552,0,0,0.015555555555555552,56.03111111111109,0)" xlink:href="#af"/><use transform="matrix(0.015555555555555552,0,0,0.015555555555555552,60.04444444444442,0)" xlink:href="#ah"/><use transform="matrix(0.015555555555555552,0,0,0.015555555555555552,69.54888888888887,0)" xlink:href="#ad"/><use transform="matrix(0.015555555555555552,0,0,0.015555555555555552,79.09999999999998,0)" xlink:href="#ai"/></g><path fill="#333" d="M367 17C186 17 81-77 81-254v-454h88v447c1 134 61 201 198 201s198-67 198-201v-447h89v454C654-77 548 17 367 17" id="aO"/><g id="z"><use transform="matrix(0.015555555555555552,0,0,0.015555555555555552,0,0)" xlink:href="#ab"/><use transform="matrix(0.015555555555555552,0,0,0.015555555555555552,8.788888888888886,0)" xlink:href="#ad"/><use transform="matrix(0.015555555555555552,0,0,0.015555555555555552,18.339999999999996,0)" xlink:href="#ai"/><use transform="matrix(0.015555555555555552,0,0,0.015555555555555552,25.21555555555555,0)" xlink:href="#ac"/><use transform="matrix(0.015555555555555552,0,0,0.015555555555555552,34.78222222222222,0)" xlink:href="#aa"/><use transform="matrix(0.015555555555555552,0,0,0.015555555555555552,40.148888888888884,0)" xlink:href="#ab"/><use transform="matrix(0.015555555555555552,0,0,0.015555555555555552,48.93777777777777,0)" xlink:href="#aO"/><use transform="matrix(0.015555555555555552,0,0,0.015555555555555552,60.3711111111111,0)" xlink:href="#ai"/><use transform="matrix(0.015555555555555552,0,0,0.015555555555555552,67.24666666666666,0)" xlink:href="#ab"/><use transform="matrix(0.015555555555555552,0,0,0.015555555555555552,76.03555555555555,0)" xlink:href="#aa"/></g><g id="A"><use transform="matrix(0.017777777777777774,0,0,0.017777777777777774,0,0)" xlink:href="#Z"/><use transform="matrix(0.017777777777777774,0,0,0.017777777777777774,11.057777777777776,0)" xlink:href="#aa"/><use transform="matrix(0.017777777777777774,0,0,0.017777777777777774,17.19111111111111,0)" xlink:href="#ab"/><use transform="matrix(0.017777777777777774,0,0,0.017777777777777774,27.128888888888888,0)" xlink:href="#ae"/><use transform="matrix(0.017777777777777774,0,0,0.017777777777777774,33.47555555555555,0)" xlink:href="#ae"/><use transform="matrix(0.017777777777777774,0,0,0.017777777777777774,39.822222222222216,0)" xlink:href="#af"/><use transform="matrix(0.017777777777777774,0,0,0.017777777777777774,44.40888888888888,0)" xlink:href="#ab"/><use transform="matrix(0.017777777777777774,0,0,0.017777777777777774,54.453333333333326,0)" xlink:href="#aa"/><use transform="matrix(0.017777777777777774,0,0,0.017777777777777774,60.92444444444443,0)" xlink:href="#an"/><use transform="matrix(0.017777777777777774,0,0,0.017777777777777774,69.6,0)" xlink:href="#ah"/><use transform="matrix(0.017777777777777774,0,0,0.017777777777777774,80.46222222222221,0)" xlink:href="#aa"/><use transform="matrix(0.017777777777777774,0,0,0.017777777777777774,86.93333333333332,0)" xlink:href="#aC"/><use transform="matrix(0.017777777777777774,0,0,0.017777777777777774,103.64444444444442,0)" xlink:href="#al"/><use transform="matrix(0.017777777777777774,0,0,0.017777777777777774,113.24444444444443,0)" xlink:href="#ae"/></g><path fill="#333" d="M362-301V0H231v-303L-18-708h150c57 100 111 203 171 301l167-301h145" id="aP"/><path fill="#333" d="M295-534c175 0 256 137 237 320H170c10 80 57 129 145 129 69-1 102-19 149-47l54 80c-56 41-119 66-211 66C138 14 46-91 44-260c-2-161 90-274 251-274zm117 226c-3-74-41-132-118-132-79 0-120 59-125 132h243" id="aQ"/><path fill="#333" d="M39-378c0-175 271-194 382-101l-50 79c-41-25-82-38-123-38-83 0-118 83-42 107 98 31 223 49 223 175C429 33 141 56 23-45l54-78c39 24 75 33 132 40 84 10 127-92 48-118-99-33-218-48-218-177" id="aR"/><g id="B"><use transform="matrix(0.017777777777777778,0,0,0.017777777777777778,0,0)" xlink:href="#aP"/><use transform="matrix(0.017777777777777778,0,0,0.017777777777777778,9.208888888888886,0)" xlink:href="#aQ"/><use transform="matrix(0.017777777777777778,0,0,0.017777777777777778,19.502222222222223,0)" xlink:href="#aR"/></g><path fill="#333" d="M134 8C96 8 79-12 78-47c0-37 19-56 56-56s55 19 55 56c0 35-18 55-55 55zm1-366c-38 0-55-20-56-55 0-37 19-56 56-56s55 19 55 56c0 35-18 55-55 55" id="aS"/><g id="C"><use transform="matrix(0.015555555555555548,0,0,0.015555555555555548,0,0)" xlink:href="#ai"/><use transform="matrix(0.015555555555555548,0,0,0.015555555555555548,6.875555555555552,0)" xlink:href="#ah"/><use transform="matrix(0.015555555555555548,0,0,0.015555555555555548,16.379999999999992,0)" xlink:href="#ac"/><use transform="matrix(0.015555555555555548,0,0,0.015555555555555548,25.946666666666655,0)" xlink:href="#aa"/><use transform="matrix(0.015555555555555548,0,0,0.015555555555555548,31.31333333333332,0)" xlink:href="#aj"/><use transform="matrix(0.015555555555555548,0,0,0.015555555555555548,38.88888888888887,0)" xlink:href="#ab"/><use transform="matrix(0.015555555555555548,0,0,0.015555555555555548,47.677777777777756,0)" xlink:href="#aS"/><use transform="matrix(0.015555555555555548,0,0,0.015555555555555548,51.831111111111085,0)" xlink:href="#Z"/><use transform="matrix(0.015555555555555548,0,0,0.015555555555555548,61.50666666666663,0)" xlink:href="#ac"/><use transform="matrix(0.015555555555555548,0,0,0.015555555555555548,71.0733333333333,0)" xlink:href="#aB"/><use transform="matrix(0.015555555555555548,0,0,0.015555555555555548,75.08666666666663,0)" xlink:href="#aB"/></g><g id="D"><use transform="matrix(0.015555555555555548,0,0,0.015555555555555548,0,0)" xlink:href="#ak"/><use transform="matrix(0.015555555555555548,0,0,0.015555555555555548,9.659999999999995,0)" xlink:href="#ab"/><use transform="matrix(0.015555555555555548,0,0,0.015555555555555548,18.355555555555547,0)" xlink:href="#ae"/><use transform="matrix(0.015555555555555548,0,0,0.015555555555555548,23.706666666666656,0)" xlink:href="#ab"/><use transform="matrix(0.015555555555555548,0,0,0.015555555555555548,32.49555555555554,0)" xlink:href="#aj"/><use transform="matrix(0.015555555555555548,0,0,0.015555555555555548,40.63111111111109,0)" xlink:href="#ae"/><use transform="matrix(0.015555555555555548,0,0,0.015555555555555548,45.98222222222219,0)" xlink:href="#ab"/><use transform="matrix(0.015555555555555548,0,0,0.015555555555555548,54.771111111111075,0)" xlink:href="#ak"/><use transform="matrix(0.015555555555555548,0,0,0.015555555555555548,64.43111111111106,0)" xlink:href="#aH"/></g><path fill="#333" d="M80-708h149c118 176 232 354 352 528l-3-528h121V0H550C432-176 318-355 198-529l4 529H80v-708" id="aT"/><path fill="#333" d="M314-534c172 0 271 101 271 272C585-92 485 14 314 14 144 14 44-93 44-262c0-171 98-272 270-272zm0 100c-102 0-140 71-140 172 0 102 39 177 141 177s142-75 142-177-40-172-143-172" id="aU"/><g id="E"><use transform="matrix(0.017777777777777778,0,0,0.017777777777777778,0,0)" xlink:href="#aT"/><use transform="matrix(0.017777777777777778,0,0,0.017777777777777778,13.848888888888888,0)" xlink:href="#aU"/></g><g id="F"><use transform="matrix(0.017777777777777774,0,0,0.017777777777777774,0,0)" xlink:href="#aw"/><use transform="matrix(0.017777777777777774,0,0,0.017777777777777774,10.506666666666664,0)" xlink:href="#aa"/><use transform="matrix(0.017777777777777774,0,0,0.017777777777777774,16.639999999999997,0)" xlink:href="#ab"/><use transform="matrix(0.017777777777777774,0,0,0.017777777777777774,26.684444444444438,0)" xlink:href="#ax"/><use transform="matrix(0.017777777777777774,0,0,0.017777777777777774,37.511111111111106,0)" xlink:href="#ab"/><use transform="matrix(0.017777777777777774,0,0,0.017777777777777774,47.44888888888888,0)" xlink:href="#ae"/><use transform="matrix(0.017777777777777774,0,0,0.017777777777777774,53.795555555555545,0)" xlink:href="#aa"/><use transform="matrix(0.017777777777777774,0,0,0.017777777777777774,60.26666666666665,0)" xlink:href="#af"/><use transform="matrix(0.017777777777777774,0,0,0.017777777777777774,64.85333333333332,0)" xlink:href="#ab"/><use transform="matrix(0.017777777777777774,0,0,0.017777777777777774,74.77333333333331,0)" xlink:href="#ag"/><use transform="matrix(0.017777777777777774,0,0,0.017777777777777774,83.32444444444442,0)" xlink:href="#ab"/><use transform="matrix(0.017777777777777774,0,0,0.017777777777777774,93.36888888888886,0)" xlink:href="#ax"/><use transform="matrix(0.017777777777777774,0,0,0.017777777777777774,104.19555555555553,0)" xlink:href="#ab"/><use transform="matrix(0.017777777777777774,0,0,0.017777777777777774,114.23999999999997,0)" xlink:href="#ai"/><use transform="matrix(0.017777777777777774,0,0,0.017777777777777774,122.09777777777774,0)" xlink:href="#ac"/><use transform="matrix(0.017777777777777774,0,0,0.017777777777777774,133.03111111111107,0)" xlink:href="#aB"/><use transform="matrix(0.017777777777777774,0,0,0.017777777777777774,137.61777777777775,0)" xlink:href="#ae"/></g><g id="G"><use transform="matrix(0.017777777777777774,0,0,0.017777777777777774,0,0)" xlink:href="#aw"/><use transform="matrix(0.017777777777777774,0,0,0.017777777777777774,10.328888888888887,0)" xlink:href="#ah"/><use transform="matrix(0.017777777777777774,0,0,0.017777777777777774,21.191111111111105,0)" xlink:href="#ai"/><use transform="matrix(0.017777777777777774,0,0,0.017777777777777774,29.048888888888882,0)" xlink:href="#ae"/><use transform="matrix(0.017777777777777774,0,0,0.017777777777777774,35.395555555555546,0)" xlink:href="#ax"/><use transform="matrix(0.017777777777777774,0,0,0.017777777777777774,46.222222222222214,0)" xlink:href="#ab"/><use transform="matrix(0.017777777777777774,0,0,0.017777777777777774,56.15999999999999,0)" xlink:href="#ae"/><use transform="matrix(0.017777777777777774,0,0,0.017777777777777774,62.50666666666665,0)" xlink:href="#aa"/><use transform="matrix(0.017777777777777774,0,0,0.017777777777777774,68.97777777777776,0)" xlink:href="#af"/><use transform="matrix(0.017777777777777774,0,0,0.017777777777777774,73.56444444444443,0)" xlink:href="#ab"/><use transform="matrix(0.017777777777777774,0,0,0.017777777777777774,83.48444444444443,0)" xlink:href="#ag"/><use transform="matrix(0.017777777777777774,0,0,0.017777777777777774,92.03555555555553,0)" xlink:href="#ab"/><use transform="matrix(0.017777777777777774,0,0,0.017777777777777774,102.07999999999997,0)" xlink:href="#ax"/><use transform="matrix(0.017777777777777774,0,0,0.017777777777777774,112.90666666666664,0)" xlink:href="#ab"/><use transform="matrix(0.017777777777777774,0,0,0.017777777777777774,122.95111111111108,0)" xlink:href="#ai"/><use transform="matrix(0.017777777777777774,0,0,0.017777777777777774,130.80888888888884,0)" xlink:href="#ac"/><use transform="matrix(0.017777777777777774,0,0,0.017777777777777774,141.74222222222218,0)" xlink:href="#aB"/><use transform="matrix(0.017777777777777774,0,0,0.017777777777777774,146.32888888888886,0)" xlink:href="#ae"/></g><g id="H"><use transform="matrix(0.017777777777777774,0,0,0.017777777777777774,0,0)" xlink:href="#aw"/><use transform="matrix(0.017777777777777774,0,0,0.017777777777777774,10.328888888888887,0)" xlink:href="#ah"/><use transform="matrix(0.017777777777777774,0,0,0.017777777777777774,21.191111111111105,0)" xlink:href="#ai"/><use transform="matrix(0.017777777777777774,0,0,0.017777777777777774,29.048888888888882,0)" xlink:href="#ae"/><use transform="matrix(0.017777777777777774,0,0,0.017777777777777774,35.395555555555546,0)" xlink:href="#am"/><use transform="matrix(0.017777777777777774,0,0,0.017777777777777774,45.33333333333332,0)" xlink:href="#ah"/><use transform="matrix(0.017777777777777774,0,0,0.017777777777777774,56.19555555555554,0)" xlink:href="#ac"/><use transform="matrix(0.017777777777777774,0,0,0.017777777777777774,67.12888888888888,0)" xlink:href="#aa"/><use transform="matrix(0.017777777777777774,0,0,0.017777777777777774,73.26222222222222,0)" xlink:href="#aj"/><use transform="matrix(0.017777777777777774,0,0,0.017777777777777774,81.91999999999999,0)" xlink:href="#ab"/><use transform="matrix(0.017777777777777774,0,0,0.017777777777777774,91.96444444444442,0)" xlink:href="#aO"/><use transform="matrix(0.017777777777777774,0,0,0.017777777777777774,105.03111111111109,0)" xlink:href="#Z"/><use transform="matrix(0.017777777777777774,0,0,0.017777777777777774,116.08888888888886,0)" xlink:href="#ak"/><use transform="matrix(0.017777777777777774,0,0,0.017777777777777774,127.12888888888885,0)" xlink:href="#al"/><use transform="matrix(0.017777777777777774,0,0,0.017777777777777774,136.72888888888886,0)" xlink:href="#ae"/><use transform="matrix(0.017777777777777774,0,0,0.017777777777777774,142.8444444444444,0)" xlink:href="#ab"/><use transform="matrix(0.017777777777777774,0,0,0.017777777777777774,152.88888888888886,0)" xlink:href="#ax"/><use transform="matrix(0.017777777777777774,0,0,0.017777777777777774,163.7155555555555,0)" xlink:href="#ab"/><use transform="matrix(0.017777777777777774,0,0,0.017777777777777774,173.75999999999996,0)" xlink:href="#ai"/><use transform="matrix(0.017777777777777774,0,0,0.017777777777777774,181.61777777777775,0)" xlink:href="#ac"/><use transform="matrix(0.017777777777777774,0,0,0.017777777777777774,192.55111111111108,0)" xlink:href="#aB"/><use transform="matrix(0.017777777777777774,0,0,0.017777777777777774,197.13777777777779,0)" xlink:href="#ae"/></g><path fill="#333" d="M247 257c-129 0-227-40-227-153C20 28 64-4 125-36c-33-15-49-37-49-67 0-43 35-68 74-79-60-24-100-74-100-157 0-151 154-213 302-170h177v68l-113-12c32 23 55 66 54 122 0 115-87 172-209 172-52 0-107 9-107 49 0 27 32 41 97 42 94 1 163 14 205 38s63 59 63 107c0 132-124 180-272 180zM129-341c1 79 47 121 131 121 87 0 131-39 131-118-1-77-49-121-131-121-76 0-132 44-131 118zm121 534c101 0 185-23 185-109 0-54-41-66-99-78-36-7-85-10-148-10-49 23-85 46-85 104 0 62 49 93 147 93" id="aV"/><g id="I"><use transform="matrix(0.017777777777777774,0,0,0.017777777777777774,0,0)" xlink:href="#ax"/><use transform="matrix(0.017777777777777774,0,0,0.017777777777777774,10.826666666666664,0)" xlink:href="#ab"/><use transform="matrix(0.017777777777777774,0,0,0.017777777777777774,20.87111111111111,0)" xlink:href="#ai"/><use transform="matrix(0.017777777777777774,0,0,0.017777777777777774,28.728888888888882,0)" xlink:href="#ab"/><use transform="matrix(0.017777777777777774,0,0,0.017777777777777774,38.66666666666666,0)" xlink:href="#ae"/><use transform="matrix(0.017777777777777774,0,0,0.017777777777777774,45.01333333333332,0)" xlink:href="#au"/><use transform="matrix(0.017777777777777774,0,0,0.017777777777777774,53.8311111111111,0)" xlink:href="#ah"/><use transform="matrix(0.017777777777777774,0,0,0.017777777777777774,64.69333333333331,0)" xlink:href="#aj"/><use transform="matrix(0.017777777777777774,0,0,0.017777777777777774,73.63555555555553,0)" xlink:href="#al"/><use transform="matrix(0.017777777777777774,0,0,0.017777777777777774,83.34222222222219,0)" xlink:href="#aB"/><use transform="matrix(0.017777777777777774,0,0,0.017777777777777774,87.92888888888885,0)" xlink:href="#ay"/><use transform="matrix(0.017777777777777774,0,0,0.017777777777777774,97.61777777777773,0)" xlink:href="#aa"/><use transform="matrix(0.017777777777777774,0,0,0.017777777777777774,103.73333333333329,0)" xlink:href="#al"/><use transform="matrix(0.017777777777777774,0,0,0.017777777777777774,113.43999999999996,0)" xlink:href="#aj"/><use transform="matrix(0.017777777777777774,0,0,0.017777777777777774,122.38222222222217,0)" xlink:href="#aE"/><use transform="matrix(0.017777777777777774,0,0,0.017777777777777774,131.7866666666666,0)" xlink:href="#af"/><use transform="matrix(0.017777777777777774,0,0,0.017777777777777774,136.37333333333328,0)" xlink:href="#ad"/><use transform="matrix(0.017777777777777774,0,0,0.017777777777777774,147.28888888888883,0)" xlink:href="#aV"/><use transform="matrix(0.017777777777777774,0,0,0.017777777777777774,157.10222222222217,0)" xlink:href="#an"/><use transform="matrix(0.017777777777777774,0,0,0.017777777777777774,166.31111111111105,0)" xlink:href="#af"/><use transform="matrix(0.017777777777777774,0,0,0.017777777777777774,170.89777777777772,0)" xlink:href="#aB"/><use transform="matrix(0.017777777777777774,0,0,0.017777777777777774,175.48444444444436,0)" xlink:href="#ab"/><use transform="matrix(0.017777777777777774,0,0,0.017777777777777774,185.52888888888884,0)" xlink:href="#ai"/></g><g id="J"><use transform="matrix(0.013333333333333329,0,0,0.013333333333333329,0,0)" xlink:href="#az"/><use transform="matrix(0.013333333333333329,0,0,0.013333333333333329,4.906666666666665,0)" xlink:href="#aG"/><use transform="matrix(0.013333333333333329,0,0,0.013333333333333329,9.306666666666665,0)" xlink:href="#ah"/><use transform="matrix(0.013333333333333329,0,0,0.013333333333333329,17.45333333333333,0)" xlink:href="#aa"/><use transform="matrix(0.013333333333333329,0,0,0.013333333333333329,22.053333333333327,0)" xlink:href="#aj"/><use transform="matrix(0.013333333333333329,0,0,0.013333333333333329,28.546666666666656,0)" xlink:href="#ab"/><use transform="matrix(0.013333333333333329,0,0,0.013333333333333329,36.079999999999984,0)" xlink:href="#aS"/><use transform="matrix(0.013333333333333329,0,0,0.013333333333333329,39.639999999999986,0)" xlink:href="#ai"/><use transform="matrix(0.013333333333333329,0,0,0.013333333333333329,45.53333333333332,0)" xlink:href="#ah"/><use transform="matrix(0.013333333333333329,0,0,0.013333333333333329,53.67999999999998,0)" xlink:href="#ac"/><use transform="matrix(0.013333333333333329,0,0,0.013333333333333329,61.87999999999998,0)" xlink:href="#aa"/><use transform="matrix(0.013333333333333329,0,0,0.013333333333333329,66.47999999999998,0)" xlink:href="#aj"/><use transform="matrix(0.013333333333333329,0,0,0.013333333333333329,72.9733333333333,0)" xlink:href="#ab"/><use transform="matrix(0.013333333333333329,0,0,0.013333333333333329,80.50666666666663,0)" xlink:href="#aS"/><use transform="matrix(0.013333333333333329,0,0,0.013333333333333329,84.06666666666663,0)" xlink:href="#ae"/><use transform="matrix(0.013333333333333329,0,0,0.013333333333333329,88.82666666666663,0)" xlink:href="#aa"/><use transform="matrix(0.013333333333333329,0,0,0.013333333333333329,93.4133333333333,0)" xlink:href="#al"/><use transform="matrix(0.013333333333333329,0,0,0.013333333333333329,100.6933333333333,0)" xlink:href="#aj"/><use transform="matrix(0.013333333333333329,0,0,0.013333333333333329,107.39999999999996,0)" xlink:href="#aE"/><use transform="matrix(0.013333333333333329,0,0,0.013333333333333329,114.45333333333329,0)" xlink:href="#af"/><use transform="matrix(0.013333333333333329,0,0,0.013333333333333329,117.89333333333329,0)" xlink:href="#ad"/><use transform="matrix(0.013333333333333329,0,0,0.013333333333333329,126.07999999999996,0)" xlink:href="#aV"/><use transform="matrix(0.013333333333333329,0,0,0.013333333333333329,133.43999999999994,0)" xlink:href="#aS"/><use transform="matrix(0.013333333333333329,0,0,0.013333333333333329,136.99999999999994,0)" xlink:href="#aa"/><use transform="matrix(0.013333333333333329,0,0,0.013333333333333329,141.59999999999994,0)" xlink:href="#ab"/><use transform="matrix(0.013333333333333329,0,0,0.013333333333333329,149.13333333333327,0)" xlink:href="#ai"/><use transform="matrix(0.013333333333333329,0,0,0.013333333333333329,155.0266666666666,0)" xlink:href="#ab"/><use transform="matrix(0.013333333333333329,0,0,0.013333333333333329,162.47999999999993,0)" xlink:href="#ae"/></g><g id="K"><use transform="matrix(0.013333333333333329,0,0,0.013333333333333329,0,0)" xlink:href="#ac"/><use transform="matrix(0.013333333333333329,0,0,0.013333333333333329,7.986666666666664,0)" xlink:href="#ai"/><use transform="matrix(0.013333333333333329,0,0,0.013333333333333329,13.879999999999995,0)" xlink:href="#af"/><use transform="matrix(0.013333333333333329,0,0,0.013333333333333329,17.319999999999993,0)" xlink:href="#ad"/><use transform="matrix(0.013333333333333329,0,0,0.013333333333333329,25.506666666666657,0)" xlink:href="#aV"/></g><path fill="#333" d="M834 0h-87c-1-201 4-407 0-605L493 0h-67c-85-201-167-406-255-605l2 605H90v-708h131c81 196 158 395 241 589l240-589h132V0" id="aW"/><path fill="#333" d="M49-355c0-228 122-371 351-371 102 0 185 35 240 87l-52 57c-44-40-106-67-185-68-174-3-262 122-262 295-1 171 88 297 260 294 84 0 152-36 197-80l54 59C596-25 507 18 398 17 170 15 49-128 49-355" id="aX"/><g id="L"><use transform="matrix(0.013333333333333329,0,0,0.013333333333333329,0,0)" xlink:href="#ai"/><use transform="matrix(0.013333333333333329,0,0,0.013333333333333329,5.893333333333332,0)" xlink:href="#ae"/><use transform="matrix(0.013333333333333329,0,0,0.013333333333333329,10.479999999999997,0)" xlink:href="#ah"/><use transform="matrix(0.013333333333333329,0,0,0.013333333333333329,18.62666666666666,0)" xlink:href="#aa"/><use transform="matrix(0.013333333333333329,0,0,0.013333333333333329,23.22666666666666,0)" xlink:href="#ab"/><use transform="matrix(0.013333333333333329,0,0,0.013333333333333329,30.75999999999999,0)" xlink:href="#ak"/><use transform="matrix(0.013333333333333329,0,0,0.013333333333333329,39.03999999999999,0)" xlink:href="#am"/><use transform="matrix(0.013333333333333329,0,0,0.013333333333333329,46.493333333333325,0)" xlink:href="#ab"/><use transform="matrix(0.013333333333333329,0,0,0.013333333333333329,54.02666666666666,0)" xlink:href="#aa"/><use transform="matrix(0.013333333333333329,0,0,0.013333333333333329,59.14666666666666,0)" xlink:href="#ag"/><use transform="matrix(0.013333333333333329,0,0,0.013333333333333329,65.55999999999999,0)" xlink:href="#ab"/><use transform="matrix(0.013333333333333329,0,0,0.013333333333333329,73.09333333333332,0)" xlink:href="#aa"/><use transform="matrix(0.013333333333333329,0,0,0.013333333333333329,77.94666666666666,0)" xlink:href="#aW"/><use transform="matrix(0.013333333333333329,0,0,0.013333333333333329,90.25333333333332,0)" xlink:href="#al"/><use transform="matrix(0.013333333333333329,0,0,0.013333333333333329,97.53333333333332,0)" xlink:href="#aL"/><use transform="matrix(0.013333333333333329,0,0,0.013333333333333329,104.54666666666665,0)" xlink:href="#ax"/><use transform="matrix(0.013333333333333329,0,0,0.013333333333333329,112.66666666666666,0)" xlink:href="#ab"/><use transform="matrix(0.013333333333333329,0,0,0.013333333333333329,120.10666666666665,0)" xlink:href="#ag"/><use transform="matrix(0.013333333333333329,0,0,0.013333333333333329,126.61333333333332,0)" xlink:href="#af"/><use transform="matrix(0.013333333333333329,0,0,0.013333333333333329,130.0533333333333,0)" xlink:href="#ai"/><use transform="matrix(0.013333333333333329,0,0,0.013333333333333329,135.94666666666666,0)" xlink:href="#af"/><use transform="matrix(0.013333333333333329,0,0,0.013333333333333329,139.38666666666666,0)" xlink:href="#ah"/><use transform="matrix(0.013333333333333329,0,0,0.013333333333333329,147.53333333333333,0)" xlink:href="#ad"/><use transform="matrix(0.013333333333333329,0,0,0.013333333333333329,155.72,0)" xlink:href="#aX"/><use transform="matrix(0.013333333333333329,0,0,0.013333333333333329,164.36,0)" xlink:href="#ah"/><use transform="matrix(0.013333333333333329,0,0,0.013333333333333329,172.5066666666667,0)" xlink:href="#ac"/><use transform="matrix(0.013333333333333329,0,0,0.013333333333333329,180.70666666666668,0)" xlink:href="#ad"/><use transform="matrix(0.013333333333333329,0,0,0.013333333333333329,188.81333333333333,0)" xlink:href="#ae"/><use transform="matrix(0.013333333333333329,0,0,0.013333333333333329,193.39999999999998,0)" xlink:href="#ab"/><use transform="matrix(0.013333333333333329,0,0,0.013333333333333329,200.9333333333333,0)" xlink:href="#aa"/><use transform="matrix(0.013333333333333329,0,0,0.013333333333333329,205.78666666666663,0)" xlink:href="#aF"/></g><g id="M"><use transform="matrix(0.015555555555555548,0,0,0.015555555555555548,0,0)" xlink:href="#ai"/><use transform="matrix(0.015555555555555548,0,0,0.015555555555555548,6.875555555555552,0)" xlink:href="#ah"/><use transform="matrix(0.015555555555555548,0,0,0.015555555555555548,16.379999999999992,0)" xlink:href="#ac"/><use transform="matrix(0.015555555555555548,0,0,0.015555555555555548,25.946666666666655,0)" xlink:href="#aa"/><use transform="matrix(0.015555555555555548,0,0,0.015555555555555548,31.31333333333332,0)" xlink:href="#aj"/><use transform="matrix(0.015555555555555548,0,0,0.015555555555555548,38.88888888888887,0)" xlink:href="#ab"/><use transform="matrix(0.015555555555555548,0,0,0.015555555555555548,47.677777777777756,0)" xlink:href="#aS"/><use transform="matrix(0.015555555555555548,0,0,0.015555555555555548,51.831111111111085,0)" xlink:href="#Z"/><use transform="matrix(0.015555555555555548,0,0,0.015555555555555548,61.50666666666663,0)" xlink:href="#ac"/><use transform="matrix(0.015555555555555548,0,0,0.015555555555555548,71.0733333333333,0)" xlink:href="#aB"/><use transform="matrix(0.015555555555555548,0,0,0.015555555555555548,75.08666666666663,0)" xlink:href="#aB"/></g><g id="N"><use transform="matrix(0.015555555555555548,0,0,0.015555555555555548,0,0)" xlink:href="#ak"/><use transform="matrix(0.015555555555555548,0,0,0.015555555555555548,9.659999999999995,0)" xlink:href="#ab"/><use transform="matrix(0.015555555555555548,0,0,0.015555555555555548,18.355555555555547,0)" xlink:href="#ae"/><use transform="matrix(0.015555555555555548,0,0,0.015555555555555548,23.706666666666656,0)" xlink:href="#ab"/><use transform="matrix(0.015555555555555548,0,0,0.015555555555555548,32.49555555555554,0)" xlink:href="#aj"/><use transform="matrix(0.015555555555555548,0,0,0.015555555555555548,40.63111111111109,0)" xlink:href="#ae"/><use transform="matrix(0.015555555555555548,0,0,0.015555555555555548,45.98222222222219,0)" xlink:href="#ab"/><use transform="matrix(0.015555555555555548,0,0,0.015555555555555548,54.771111111111075,0)" xlink:href="#ak"/><use transform="matrix(0.015555555555555548,0,0,0.015555555555555548,64.43111111111106,0)" xlink:href="#aH"/></g><g id="O"><use transform="matrix(0.015555555555555548,0,0,0.015555555555555548,0,0)" xlink:href="#ai"/><use transform="matrix(0.015555555555555548,0,0,0.015555555555555548,6.875555555555552,0)" xlink:href="#ae"/><use transform="matrix(0.015555555555555548,0,0,0.015555555555555548,12.226666666666661,0)" xlink:href="#ah"/><use transform="matrix(0.015555555555555548,0,0,0.015555555555555548,21.7311111111111,0)" xlink:href="#aa"/><use transform="matrix(0.015555555555555548,0,0,0.015555555555555548,27.097777777777765,0)" xlink:href="#ab"/><use transform="matrix(0.015555555555555548,0,0,0.015555555555555548,35.88666666666665,0)" xlink:href="#ak"/></g><g id="P"><use transform="matrix(0.015555555555555548,0,0,0.015555555555555548,0,0)" xlink:href="#am"/><use transform="matrix(0.015555555555555548,0,0,0.015555555555555548,8.69555555555555,0)" xlink:href="#ab"/><use transform="matrix(0.015555555555555548,0,0,0.015555555555555548,17.484444444444435,0)" xlink:href="#aa"/><use transform="matrix(0.015555555555555548,0,0,0.015555555555555548,23.457777777777764,0)" xlink:href="#ag"/><use transform="matrix(0.015555555555555548,0,0,0.015555555555555548,30.939999999999984,0)" xlink:href="#ab"/><use transform="matrix(0.015555555555555548,0,0,0.015555555555555548,39.72888888888887,0)" xlink:href="#aa"/><use transform="matrix(0.015555555555555548,0,0,0.015555555555555548,45.39111111111109,0)" xlink:href="#aW"/><use transform="matrix(0.015555555555555548,0,0,0.015555555555555548,59.74888888888886,0)" xlink:href="#al"/><use transform="matrix(0.015555555555555548,0,0,0.015555555555555548,68.24222222222218,0)" xlink:href="#aL"/><use transform="matrix(0.015555555555555548,0,0,0.015555555555555548,76.4244444444444,0)" xlink:href="#ax"/><use transform="matrix(0.015555555555555548,0,0,0.015555555555555548,85.89777777777772,0)" xlink:href="#ab"/><use transform="matrix(0.015555555555555548,0,0,0.015555555555555548,94.57777777777773,0)" xlink:href="#ag"/><use transform="matrix(0.015555555555555548,0,0,0.015555555555555548,102.16888888888883,0)" xlink:href="#af"/><use transform="matrix(0.015555555555555548,0,0,0.015555555555555548,106.18222222222217,0)" xlink:href="#ai"/><use transform="matrix(0.015555555555555548,0,0,0.015555555555555548,113.05777777777772,0)" xlink:href="#af"/><use transform="matrix(0.015555555555555548,0,0,0.015555555555555548,117.07111111111105,0)" xlink:href="#ah"/><use transform="matrix(0.015555555555555548,0,0,0.015555555555555548,126.5755555555555,0)" xlink:href="#ad"/></g><g id="Q"><use transform="matrix(0.015555555555555548,0,0,0.015555555555555548,0,0)" xlink:href="#aX"/><use transform="matrix(0.015555555555555548,0,0,0.015555555555555548,10.079999999999997,0)" xlink:href="#ah"/><use transform="matrix(0.015555555555555548,0,0,0.015555555555555548,19.584444444444436,0)" xlink:href="#ac"/><use transform="matrix(0.015555555555555548,0,0,0.015555555555555548,29.1511111111111,0)" xlink:href="#ad"/><use transform="matrix(0.015555555555555548,0,0,0.015555555555555548,38.60888888888887,0)" xlink:href="#ae"/><use transform="matrix(0.015555555555555548,0,0,0.015555555555555548,43.95999999999998,0)" xlink:href="#ab"/><use transform="matrix(0.015555555555555548,0,0,0.015555555555555548,52.748888888888864,0)" xlink:href="#aa"/><use transform="matrix(0.015555555555555548,0,0,0.015555555555555548,58.09999999999997,0)" xlink:href="#aH"/></g><path fill="#333" d="M324-304V0h-88v-306L-11-708H90c65 110 127 223 195 331l191-331h97" id="aY"/><g id="R"><use transform="matrix(0.017777777777777778,0,0,0.017777777777777778,0,0)" xlink:href="#aY"/><use transform="matrix(0.017777777777777778,0,0,0.017777777777777778,8.586666666666666,0)" xlink:href="#ab"/><use transform="matrix(0.017777777777777778,0,0,0.017777777777777778,18.63111111111111,0)" xlink:href="#ai"/></g><g id="S"><use transform="matrix(0.017777777777777774,0,0,0.017777777777777774,0,0)" xlink:href="#am"/><use transform="matrix(0.017777777777777774,0,0,0.017777777777777774,9.937777777777775,0)" xlink:href="#ae"/><use transform="matrix(0.017777777777777774,0,0,0.017777777777777774,16.053333333333327,0)" xlink:href="#ah"/><use transform="matrix(0.017777777777777774,0,0,0.017777777777777774,26.91555555555555,0)" xlink:href="#aa"/><use transform="matrix(0.017777777777777774,0,0,0.017777777777777774,33.04888888888888,0)" xlink:href="#ab"/><use transform="matrix(0.017777777777777774,0,0,0.017777777777777774,43.09333333333333,0)" xlink:href="#au"/><use transform="matrix(0.017777777777777774,0,0,0.017777777777777774,51.911111111111104,0)" xlink:href="#ah"/><use transform="matrix(0.017777777777777774,0,0,0.017777777777777774,62.773333333333326,0)" xlink:href="#aj"/><use transform="matrix(0.017777777777777774,0,0,0.017777777777777774,71.71555555555554,0)" xlink:href="#al"/><use transform="matrix(0.017777777777777774,0,0,0.017777777777777774,81.4222222222222,0)" xlink:href="#aB"/><use transform="matrix(0.017777777777777774,0,0,0.017777777777777774,86.00888888888886,0)" xlink:href="#am"/><use transform="matrix(0.017777777777777774,0,0,0.017777777777777774,95.94666666666663,0)" xlink:href="#ab"/><use transform="matrix(0.017777777777777774,0,0,0.017777777777777774,105.99111111111107,0)" xlink:href="#aa"/><use transform="matrix(0.017777777777777774,0,0,0.017777777777777774,112.81777777777774,0)" xlink:href="#ag"/><use transform="matrix(0.017777777777777774,0,0,0.017777777777777774,121.36888888888885,0)" xlink:href="#ab"/><use transform="matrix(0.017777777777777774,0,0,0.017777777777777774,131.4133333333333,0)" xlink:href="#aa"/><use transform="matrix(0.017777777777777774,0,0,0.017777777777777774,137.8844444444444,0)" xlink:href="#aW"/><use transform="matrix(0.017777777777777774,0,0,0.017777777777777774,154.2933333333333,0)" xlink:href="#al"/><use transform="matrix(0.017777777777777774,0,0,0.017777777777777774,163.99999999999997,0)" xlink:href="#aL"/><use transform="matrix(0.017777777777777774,0,0,0.017777777777777774,173.35111111111112,0)" xlink:href="#ax"/><use transform="matrix(0.017777777777777774,0,0,0.017777777777777774,184.17777777777775,0)" xlink:href="#ab"/><use transform="matrix(0.017777777777777774,0,0,0.017777777777777774,194.09777777777776,0)" xlink:href="#ag"/><use transform="matrix(0.017777777777777774,0,0,0.017777777777777774,202.7733333333333,0)" xlink:href="#af"/><use transform="matrix(0.017777777777777774,0,0,0.017777777777777774,207.35999999999999,0)" xlink:href="#ai"/><use transform="matrix(0.017777777777777774,0,0,0.017777777777777774,215.21777777777777,0)" xlink:href="#af"/><use transform="matrix(0.017777777777777774,0,0,0.017777777777777774,219.80444444444444,0)" xlink:href="#ah"/><use transform="matrix(0.017777777777777774,0,0,0.017777777777777774,230.66666666666666,0)" xlink:href="#ad"/><use transform="matrix(0.017777777777777774,0,0,0.017777777777777774,241.5822222222222,0)" xlink:href="#aX"/><use transform="matrix(0.017777777777777774,0,0,0.017777777777777774,253.10222222222222,0)" xlink:href="#ah"/><use transform="matrix(0.017777777777777774,0,0,0.017777777777777774,263.96444444444444,0)" xlink:href="#ac"/><use transform="matrix(0.017777777777777774,0,0,0.017777777777777774,274.8977777777778,0)" xlink:href="#ad"/><use transform="matrix(0.017777777777777774,0,0,0.017777777777777774,285.70666666666665,0)" xlink:href="#ae"/><use transform="matrix(0.017777777777777774,0,0,0.017777777777777774,291.82222222222225,0)" xlink:href="#ab"/><use transform="matrix(0.017777777777777774,0,0,0.017777777777777774,301.8666666666667,0)" xlink:href="#aa"/></g><g id="T"><use transform="matrix(0.013333333333333329,0,0,0.013333333333333329,0,0)" xlink:href="#az"/><use transform="matrix(0.013333333333333329,0,0,0.013333333333333329,4.906666666666665,0)" xlink:href="#ai"/><use transform="matrix(0.013333333333333329,0,0,0.013333333333333329,10.799999999999997,0)" xlink:href="#ab"/><use transform="matrix(0.013333333333333329,0,0,0.013333333333333329,18.33333333333333,0)" xlink:href="#ab"/></g><g id="U"><use transform="matrix(0.013333333333333329,0,0,0.013333333333333329,0,0)" xlink:href="#aM"/><use transform="matrix(0.013333333333333329,0,0,0.013333333333333329,3.439999999999999,0)" xlink:href="#al"/><use transform="matrix(0.013333333333333329,0,0,0.013333333333333329,10.37333333333333,0)" xlink:href="#aK"/><use transform="matrix(0.013333333333333329,0,0,0.013333333333333329,16.693333333333328,0)" xlink:href="#aa"/><use transform="matrix(0.013333333333333329,0,0,0.013333333333333329,21.293333333333326,0)" xlink:href="#ab"/><use transform="matrix(0.013333333333333329,0,0,0.013333333333333329,28.826666666666657,0)" xlink:href="#ab"/><use transform="matrix(0.013333333333333329,0,0,0.013333333333333329,36.359999999999985,0)" xlink:href="#aS"/><use transform="matrix(0.013333333333333329,0,0,0.013333333333333329,39.91999999999999,0)" xlink:href="#ai"/><use transform="matrix(0.013333333333333329,0,0,0.013333333333333329,45.81333333333332,0)" xlink:href="#ah"/><use transform="matrix(0.013333333333333329,0,0,0.013333333333333329,53.95999999999998,0)" xlink:href="#ac"/><use transform="matrix(0.013333333333333329,0,0,0.013333333333333329,62.15999999999998,0)" xlink:href="#aa"/><use transform="matrix(0.013333333333333329,0,0,0.013333333333333329,66.75999999999998,0)" xlink:href="#aj"/><use transform="matrix(0.013333333333333329,0,0,0.013333333333333329,73.2533333333333,0)" xlink:href="#ab"/><use transform="matrix(0.013333333333333329,0,0,0.013333333333333329,80.78666666666663,0)" xlink:href="#aS"/><use transform="matrix(0.013333333333333329,0,0,0.013333333333333329,84.34666666666664,0)" xlink:href="#ae"/><use transform="matrix(0.013333333333333329,0,0,0.013333333333333329,89.10666666666663,0)" xlink:href="#aa"/><use transform="matrix(0.013333333333333329,0,0,0.013333333333333329,93.6933333333333,0)" xlink:href="#al"/><use transform="matrix(0.013333333333333329,0,0,0.013333333333333329,100.9733333333333,0)" xlink:href="#aj"/><use transform="matrix(0.013333333333333329,0,0,0.013333333333333329,107.67999999999996,0)" xlink:href="#aE"/><use transform="matrix(0.013333333333333329,0,0,0.013333333333333329,114.73333333333329,0)" xlink:href="#af"/><use transform="matrix(0.013333333333333329,0,0,0.013333333333333329,118.17333333333329,0)" xlink:href="#ad"/><use transform="matrix(0.013333333333333329,0,0,0.013333333333333329,126.35999999999996,0)" xlink:href="#aV"/><use transform="matrix(0.013333333333333329,0,0,0.013333333333333329,133.71999999999994,0)" xlink:href="#aS"/><use transform="matrix(0.013333333333333329,0,0,0.013333333333333329,137.27999999999994,0)" xlink:href="#ai"/><use transform="matrix(0.013333333333333329,0,0,0.013333333333333329,143.1733333333333,0)" xlink:href="#ae"/><use transform="matrix(0.013333333333333329,0,0,0.013333333333333329,147.75999999999993,0)" xlink:href="#ah"/><use transform="matrix(0.013333333333333329,0,0,0.013333333333333329,155.9066666666666,0)" xlink:href="#aa"/><use transform="matrix(0.013333333333333329,0,0,0.013333333333333329,160.5066666666666,0)" xlink:href="#ab"/><use transform="matrix(0.013333333333333329,0,0,0.013333333333333329,168.03999999999994,0)" xlink:href="#aS"/><use transform="matrix(0.013333333333333329,0,0,0.013333333333333329,171.59999999999994,0)" xlink:href="#ai"/><use transform="matrix(0.013333333333333329,0,0,0.013333333333333329,177.49333333333328,0)" xlink:href="#ab"/><use transform="matrix(0.013333333333333329,0,0,0.013333333333333329,184.9466666666666,0)" xlink:href="#ae"/><use transform="matrix(0.013333333333333329,0,0,0.013333333333333329,189.7066666666666,0)" xlink:href="#aF"/></g><path fill="#333" d="M90-708h102c138 196 274 394 414 588l-2-588h83V0H585C447-196 311-394 171-588l2 588H90v-708" id="aZ"/><g id="V"><use transform="matrix(0.017777777777777778,0,0,0.017777777777777778,0,0)" xlink:href="#aZ"/><use transform="matrix(0.017777777777777778,0,0,0.017777777777777778,13.795555555555556,0)" xlink:href="#ah"/></g><g id="W"><use transform="matrix(0.017777777777777774,0,0,0.017777777777777774,0,0)" xlink:href="#ax"/><use transform="matrix(0.017777777777777774,0,0,0.017777777777777774,10.826666666666664,0)" xlink:href="#ab"/><use transform="matrix(0.017777777777777774,0,0,0.017777777777777774,20.87111111111111,0)" xlink:href="#ai"/><use transform="matrix(0.017777777777777774,0,0,0.017777777777777774,28.728888888888882,0)" xlink:href="#ab"/><use transform="matrix(0.017777777777777774,0,0,0.017777777777777774,38.66666666666666,0)" xlink:href="#ae"/><use transform="matrix(0.017777777777777774,0,0,0.017777777777777774,45.01333333333332,0)" xlink:href="#at"/><use transform="matrix(0.017777777777777774,0,0,0.017777777777777774,56.15999999999998,0)" xlink:href="#ab"/><use transform="matrix(0.017777777777777774,0,0,0.017777777777777774,66.09777777777775,0)" xlink:href="#aG"/><use transform="matrix(0.017777777777777774,0,0,0.017777777777777774,71.96444444444441,0)" xlink:href="#ah"/><use transform="matrix(0.017777777777777774,0,0,0.017777777777777774,82.82666666666661,0)" xlink:href="#aa"/><use transform="matrix(0.017777777777777774,0,0,0.017777777777777774,88.95999999999997,0)" xlink:href="#ab"/><use transform="matrix(0.017777777777777774,0,0,0.017777777777777774,99.0044444444444,0)" xlink:href="#aw"/><use transform="matrix(0.017777777777777774,0,0,0.017777777777777774,109.33333333333329,0)" xlink:href="#ac"/><use transform="matrix(0.017777777777777774,0,0,0.017777777777777774,120.26666666666662,0)" xlink:href="#aB"/><use transform="matrix(0.017777777777777774,0,0,0.017777777777777774,124.8533333333333,0)" xlink:href="#aB"/><use transform="matrix(0.017777777777777774,0,0,0.017777777777777774,129.43999999999997,0)" xlink:href="#aH"/></g><path fill="#333" d="M337-202C336-73 267 17 133 17 86 17 43 6 6-17l33-65c22 12 56 22 89 22 86 1 119-57 120-141v-507h89v506" id="ba"/><path fill="#333" d="M650 0h-89v-329H179V0H90v-708h89v307h382v-307h89V0" id="bb"/><path fill="#333" d="M226-325l-47 49V0H90v-708h89v324l310-324h104L282-384 618 0H510" id="bc"/><g id="X"><use transform="matrix(0.013333333333333329,0,0,0.013333333333333329,0,0)" xlink:href="#az"/><use transform="matrix(0.013333333333333329,0,0,0.013333333333333329,4.906666666666665,0)" xlink:href="#am"/><use transform="matrix(0.013333333333333329,0,0,0.013333333333333329,12.359999999999996,0)" xlink:href="#an"/><use transform="matrix(0.013333333333333329,0,0,0.013333333333333329,19.533333333333328,0)" xlink:href="#ao"/><use transform="matrix(0.013333333333333329,0,0,0.013333333333333329,29.293333333333322,0)" xlink:href="#ap"/><use transform="matrix(0.013333333333333329,0,0,0.013333333333333329,37.51999999999999,0)" xlink:href="#aq"/><use transform="matrix(0.013333333333333329,0,0,0.013333333333333329,45.65333333333332,0)" xlink:href="#av"/><use transform="matrix(0.013333333333333329,0,0,0.013333333333333329,53.15999999999998,0)" xlink:href="#aZ"/><use transform="matrix(0.013333333333333329,0,0,0.013333333333333329,63.506666666666646,0)" xlink:href="#as"/><use transform="matrix(0.013333333333333329,0,0,0.013333333333333329,72.30666666666664,0)" xlink:href="#at"/><use transform="matrix(0.013333333333333329,0,0,0.013333333333333329,80.66666666666664,0)" xlink:href="#au"/><use transform="matrix(0.013333333333333329,0,0,0.013333333333333329,87.41333333333331,0)" xlink:href="#av"/><use transform="matrix(0.013333333333333329,0,0,0.013333333333333329,94.91999999999997,0)" xlink:href="#aq"/><use transform="matrix(0.013333333333333329,0,0,0.013333333333333329,102.6533333333333,0)" xlink:href="#ba"/><use transform="matrix(0.013333333333333329,0,0,0.013333333333333329,108.09333333333329,0)" xlink:href="#as"/><use transform="matrix(0.013333333333333329,0,0,0.013333333333333329,116.14666666666663,0)" xlink:href="#aY"/><use transform="matrix(0.013333333333333329,0,0,0.013333333333333329,123.65333333333326,0)" xlink:href="#ax"/><use transform="matrix(0.013333333333333329,0,0,0.013333333333333329,132.03999999999994,0)" xlink:href="#av"/><use transform="matrix(0.013333333333333329,0,0,0.013333333333333329,139.5466666666666,0)" xlink:href="#av"/><use transform="matrix(0.013333333333333329,0,0,0.013333333333333329,147.05333333333326,0)" xlink:href="#aq"/><use transform="matrix(0.013333333333333329,0,0,0.013333333333333329,155.18666666666658,0)" xlink:href="#bb"/><use transform="matrix(0.013333333333333329,0,0,0.013333333333333329,165.0399999999999,0)" xlink:href="#aN"/><use transform="matrix(0.013333333333333329,0,0,0.013333333333333329,175.82666666666657,0)" xlink:href="#aN"/><use transform="matrix(0.013333333333333329,0,0,0.013333333333333329,186.61333333333323,0)" xlink:href="#bc"/><use transform="matrix(0.013333333333333329,0,0,0.013333333333333329,194.65333333333322,0)" xlink:href="#am"/><use transform="matrix(0.013333333333333329,0,0,0.013333333333333329,201.83999999999986,0)" xlink:href="#aq"/></g><g id="Y"><use transform="matrix(0.013333333333333329,0,0,0.013333333333333329,0,0)" xlink:href="#ax"/><use transform="matrix(0.013333333333333329,0,0,0.013333333333333329,8.386666666666663,0)" xlink:href="#av"/><use transform="matrix(0.013333333333333329,0,0,0.013333333333333329,15.893333333333327,0)" xlink:href="#am"/><use transform="matrix(0.013333333333333329,0,0,0.013333333333333329,23.346666666666657,0)" xlink:href="#av"/><use transform="matrix(0.013333333333333329,0,0,0.013333333333333329,30.853333333333325,0)" xlink:href="#ay"/><use transform="matrix(0.013333333333333329,0,0,0.013333333333333329,38.11999999999998,0)" xlink:href="#aq"/><use transform="matrix(0.013333333333333329,0,0,0.013333333333333329,46.253333333333316,0)" xlink:href="#at"/><use transform="matrix(0.013333333333333329,0,0,0.013333333333333329,54.613333333333316,0)" xlink:href="#av"/><use transform="matrix(0.013333333333333329,0,0,0.013333333333333329,62.11999999999998,0)" xlink:href="#an"/><use transform="matrix(0.013333333333333329,0,0,0.013333333333333329,69.02666666666664,0)" xlink:href="#aN"/><use transform="matrix(0.013333333333333329,0,0,0.013333333333333329,79.8133333333333,0)" xlink:href="#ax"/><use transform="matrix(0.013333333333333329,0,0,0.013333333333333329,88.19999999999996,0)" xlink:href="#av"/><use transform="matrix(0.013333333333333329,0,0,0.013333333333333329,95.70666666666662,0)" xlink:href="#aq"/><use transform="matrix(0.013333333333333329,0,0,0.013333333333333329,103.83999999999995,0)" xlink:href="#aw"/><use transform="matrix(0.013333333333333329,0,0,0.013333333333333329,111.98666666666661,0)" xlink:href="#aO"/><use transform="matrix(0.013333333333333329,0,0,0.013333333333333329,121.7866666666666,0)" xlink:href="#au"/><use transform="matrix(0.013333333333333329,0,0,0.013333333333333329,128.53333333333327,0)" xlink:href="#au"/><use transform="matrix(0.013333333333333329,0,0,0.013333333333333329,135.27999999999994,0)" xlink:href="#aF"/></g></defs></g></svg>